<?xml version="1.0" encoding="UTF-8" standalone="no"?>
<!DOCTYPE svg PUBLIC "-//W3C//DTD SVG 1.1//EN"
 "http://www.w3.org/Graphics/SVG/1.1/DTD/svg11.dtd">
<!-- Generated by graphviz version 14.1.1 (20251213.1925)
 -->
<!-- Title: Sklep_internetowy.Server.Controllers.BidController Pages: 1 -->
<svg width="162pt" height="580pt"
 viewBox="0.00 0.00 162.00 580.00" xmlns="http://www.w3.org/2000/svg" xmlns:xlink="http://www.w3.org/1999/xlink">
<g id="graph0" class="graph" transform="scale(1 1) rotate(0) translate(4 576)">
<title>Sklep_internetowy.Server.Controllers.BidController</title>
<!-- Node1 -->
<g id="Node000001" class="node">
<title>Node1</title>
<g id="a_Node000001"><a xlink:title="Kontroler API odpowiedzialny za obsluge systemu aukcyjnego oraz licytacji. Umozliwia przegladanie akt...">
<polygon fill="#999999" stroke="none" points="136.25,-128 14.25,-128 14.25,0 136.25,0 136.25,-128"/>
<text xml:space="preserve" text-anchor="start" x="18.25" y="-114.5" font-family="Helvetica,sans-Serif" font-size="10.00">Sklep_internetowy.Server.</text>
<text xml:space="preserve" text-anchor="start" x="22" y="-102.5" font-family="Helvetica,sans-Serif" font-size="10.00">Controllers.BidController</text>
<text xml:space="preserve" text-anchor="start" x="73.75" y="-86.5" font-family="Helvetica,sans-Serif" font-size="10.00"> </text>
<text xml:space="preserve" text-anchor="start" x="22.31" y="-70.5" font-family="Helvetica,sans-Serif" font-size="10.00">+</text>
<text xml:space="preserve" text-anchor="start" x="36.38" y="-70.5" font-family="Helvetica,sans-Serif" font-size="10.00">BidController()</text>
<text xml:space="preserve" text-anchor="start" x="22.31" y="-54.5" font-family="Helvetica,sans-Serif" font-size="10.00">+</text>
<text xml:space="preserve" text-anchor="start" x="36.38" y="-54.5" font-family="Helvetica,sans-Serif" font-size="10.00">GetAuction()</text>
<text xml:space="preserve" text-anchor="start" x="22.31" y="-38.5" font-family="Helvetica,sans-Serif" font-size="10.00">+</text>
<text xml:space="preserve" text-anchor="start" x="36.38" y="-38.5" font-family="Helvetica,sans-Serif" font-size="10.00">GetActiveAuctions()</text>
<text xml:space="preserve" text-anchor="start" x="22.31" y="-22.5" font-family="Helvetica,sans-Serif" font-size="10.00">+</text>
<text xml:space="preserve" text-anchor="start" x="36.38" y="-22.5" font-family="Helvetica,sans-Serif" font-size="10.00">PlaceBid()</text>
<text xml:space="preserve" text-anchor="start" x="22.31" y="-6.5" font-family="Helvetica,sans-Serif" font-size="10.00">+</text>
<text xml:space="preserve" text-anchor="start" x="36.38" y="-6.5" font-family="Helvetica,sans-Serif" font-size="10.00">CreateAuction()</text>
<polygon fill="#666666" stroke="#666666" points="14.25,-98 14.25,-98 136.25,-98 136.25,-98 14.25,-98"/>
<polygon fill="#666666" stroke="#666666" points="14.25,-82 14.25,-82 136.25,-82 136.25,-82 14.25,-82"/>
<polygon fill="none" stroke="#666666" points="14.25,0 14.25,-128 136.25,-128 136.25,0 14.25,0"/>
</a>
</g>
</g>
<!-- Node2 -->
<g id="Node000002" class="node">
<title>Node2</title>
<g id="a_Node000002"><a xlink:href="class_sklep__internetowy_1_1_server_1_1_services_1_1_bidding_1_1_auction_service.html" target="_top" xlink:title="Serwis odpowiedzialny za pełną obsługę logiki aukcji.">
<polygon fill="white" stroke="none" points="150.5,-326 0,-326 0,-182 150.5,-182 150.5,-326"/>
<text xml:space="preserve" text-anchor="start" x="4" y="-312.5" font-family="Helvetica,sans-Serif" font-size="10.00">Sklep_internetowy.Server.</text>
<text xml:space="preserve" text-anchor="start" x="4" y="-300.5" font-family="Helvetica,sans-Serif" font-size="10.00">Services.Bidding.AuctionService</text>
<text xml:space="preserve" text-anchor="start" x="73.75" y="-284.5" font-family="Helvetica,sans-Serif" font-size="10.00"> </text>
<text xml:space="preserve" text-anchor="start" x="8.25" y="-268.5" font-family="Helvetica,sans-Serif" font-size="10.00">+</text>
<text xml:space="preserve" text-anchor="start" x="22.5" y="-268.5" font-family="Helvetica,sans-Serif" font-size="10.00">AuctionService()</text>
<text xml:space="preserve" text-anchor="start" x="8.25" y="-252.5" font-family="Helvetica,sans-Serif" font-size="10.00">+</text>
<text xml:space="preserve" text-anchor="start" x="22.5" y="-252.5" font-family="Helvetica,sans-Serif" font-size="10.00">CreateAuctionAsync()</text>
<text xml:space="preserve" text-anchor="start" x="8.25" y="-236.5" font-family="Helvetica,sans-Serif" font-size="10.00">+</text>
<text xml:space="preserve" text-anchor="start" x="22.5" y="-236.5" font-family="Helvetica,sans-Serif" font-size="10.00">GetAuctionByIdAsync()</text>
<text xml:space="preserve" text-anchor="start" x="8.25" y="-220.5" font-family="Helvetica,sans-Serif" font-size="10.00">+</text>
<text xml:space="preserve" text-anchor="start" x="22.5" y="-220.5" font-family="Helvetica,sans-Serif" font-size="10.00">PlaceBidAsync()</text>
<text xml:space="preserve" text-anchor="start" x="8.25" y="-204.5" font-family="Helvetica,sans-Serif" font-size="10.00">+</text>
<text xml:space="preserve" text-anchor="start" x="22.5" y="-204.5" font-family="Helvetica,sans-Serif" font-size="10.00">GetActiveAuctionsAsync()</text>
<text xml:space="preserve" text-anchor="start" x="8.25" y="-188.5" font-family="Helvetica,sans-Serif" font-size="10.00">+</text>
<text xml:space="preserve" text-anchor="start" x="22.5" y="-188.5" font-family="Helvetica,sans-Serif" font-size="10.00">FinishAuctionAsync()</text>
<polygon fill="#666666" stroke="#666666" points="0,-296 0,-296 150.5,-296 150.5,-296 0,-296"/>
<polygon fill="#666666" stroke="#666666" points="0,-280 0,-280 150.5,-280 150.5,-280 0,-280"/>
<polygon fill="none" stroke="#666666" points="0,-182 0,-326 150.5,-326 150.5,-182 0,-182"/>
</a>
</g>
</g>
<!-- Node2&#45;&gt;Node1 -->
<g id="edge1_Node000001_Node000002" class="edge">
<title>Node2&#45;&gt;Node1</title>
<g id="a_edge1_Node000001_Node000002"><a xlink:title=" ">
<path fill="none" stroke="#63b8ff" d="M75.25,-182.19C75.25,-168.63 75.25,-154.37 75.25,-140.66"/>
<polygon fill="none" stroke="#63b8ff" points="75.25,-140.62 71.25,-134.62 75.25,-128.62 79.25,-134.62 75.25,-140.62"/>
</a>
</g>
<text xml:space="preserve" text-anchor="start" x="78.25" y="-151.5" font-family="Helvetica,sans-Serif" font-size="10.00" fill="grey">&#45;_auctionService</text>
</g>
<!-- Node3 -->
<g id="Node000003" class="node">
<title>Node3</title>
<g id="a_Node000003"><a xlink:href="class_sklep__internetowy_1_1_server_1_1_data_1_1_store_db_context.html" target="_top" xlink:title="Glowny kontekst bazy danych aplikacji TechStore. Klasa dziedziczy po IdentityDbContext,...">
<polygon fill="white" stroke="none" points="136.25,-572 14.25,-572 14.25,-380 136.25,-380 136.25,-572"/>
<text xml:space="preserve" text-anchor="start" x="18.25" y="-558.5" font-family="Helvetica,sans-Serif" font-size="10.00">Sklep_internetowy.Server.</text>
<text xml:space="preserve" text-anchor="start" x="28" y="-546.5" font-family="Helvetica,sans-Serif" font-size="10.00">Data.StoreDbContext</text>
<text xml:space="preserve" text-anchor="start" x="23.81" y="-530.5" font-family="Helvetica,sans-Serif" font-size="10.00">+</text>
<text xml:space="preserve" text-anchor="start" x="39.38" y="-530.5" font-family="Helvetica,sans-Serif" font-size="10.00">Auctions</text>
<text xml:space="preserve" text-anchor="start" x="23.81" y="-514.5" font-family="Helvetica,sans-Serif" font-size="10.00">+</text>
<text xml:space="preserve" text-anchor="start" x="39.38" y="-514.5" font-family="Helvetica,sans-Serif" font-size="10.00">Bids</text>
<text xml:space="preserve" text-anchor="start" x="23.81" y="-498.5" font-family="Helvetica,sans-Serif" font-size="10.00">+</text>
<text xml:space="preserve" text-anchor="start" x="39.38" y="-498.5" font-family="Helvetica,sans-Serif" font-size="10.00">Products</text>
<text xml:space="preserve" text-anchor="start" x="23.81" y="-482.5" font-family="Helvetica,sans-Serif" font-size="10.00">+</text>
<text xml:space="preserve" text-anchor="start" x="39.38" y="-482.5" font-family="Helvetica,sans-Serif" font-size="10.00">Orders</text>
<text xml:space="preserve" text-anchor="start" x="23.81" y="-466.5" font-family="Helvetica,sans-Serif" font-size="10.00">+</text>
<text xml:space="preserve" text-anchor="start" x="39.38" y="-466.5" font-family="Helvetica,sans-Serif" font-size="10.00">OrderProducts</text>
<text xml:space="preserve" text-anchor="start" x="23.81" y="-450.5" font-family="Helvetica,sans-Serif" font-size="10.00">+</text>
<text xml:space="preserve" text-anchor="start" x="39.38" y="-450.5" font-family="Helvetica,sans-Serif" font-size="10.00">Messages</text>
<text xml:space="preserve" text-anchor="start" x="23.81" y="-434.5" font-family="Helvetica,sans-Serif" font-size="10.00">+</text>
<text xml:space="preserve" text-anchor="start" x="39.38" y="-434.5" font-family="Helvetica,sans-Serif" font-size="10.00">ProductCategories</text>
<text xml:space="preserve" text-anchor="start" x="23.81" y="-418.5" font-family="Helvetica,sans-Serif" font-size="10.00">+</text>
<text xml:space="preserve" text-anchor="start" x="39.38" y="-418.5" font-family="Helvetica,sans-Serif" font-size="10.00">ProductImages</text>
<text xml:space="preserve" text-anchor="start" x="23.81" y="-402.5" font-family="Helvetica,sans-Serif" font-size="10.00">+</text>
<text xml:space="preserve" text-anchor="start" x="39.38" y="-402.5" font-family="Helvetica,sans-Serif" font-size="10.00">StoreDbContext()</text>
<text xml:space="preserve" text-anchor="start" x="24.19" y="-386.5" font-family="Helvetica,sans-Serif" font-size="10.00">#</text>
<text xml:space="preserve" text-anchor="start" x="39.38" y="-386.5" font-family="Helvetica,sans-Serif" font-size="10.00">OnModelCreating()</text>
<polygon fill="#666666" stroke="#666666" points="14.25,-542 14.25,-542 136.25,-542 136.25,-542 14.25,-542"/>
<polygon fill="#666666" stroke="#666666" points="14.25,-414 14.25,-414 37.38,-414 37.38,-414 14.25,-414"/>
<polygon fill="#666666" stroke="#666666" points="37.38,-414 37.38,-414 136.25,-414 136.25,-414 37.38,-414"/>
<polygon fill="none" stroke="#666666" points="14.25,-380 14.25,-572 136.25,-572 136.25,-380 14.25,-380"/>
</a>
</g>
</g>
<!-- Node3&#45;&gt;Node2 -->
<g id="edge2_Node000002_Node000003" class="edge">
<title>Node3&#45;&gt;Node2</title>
<g id="a_edge2_Node000002_Node000003"><a xlink:title=" ">
<path fill="none" stroke="#63b8ff" d="M75.25,-380.1C75.25,-366.27 75.25,-352.11 75.25,-338.52"/>
<polygon fill="none" stroke="#63b8ff" points="75.25,-338.6 71.25,-332.6 75.25,-326.6 79.25,-332.6 75.25,-338.6"/>
</a>
</g>
<text xml:space="preserve" text-anchor="start" x="78.25" y="-349.5" font-family="Helvetica,sans-Serif" font-size="10.00" fill="grey">&#45;_context</text>
</g>
</g>
</svg>
