<?xml version="1.0" encoding="UTF-8" standalone="no"?>
<!DOCTYPE svg PUBLIC "-//W3C//DTD SVG 1.1//EN"
 "http://www.w3.org/Graphics/SVG/1.1/DTD/svg11.dtd">
<!-- Generated by graphviz version 14.1.1 (20251213.1925)
 -->
<!-- Title: Sklep_internetowy.Server.Services.Auth.AccountService Pages: 1 -->
<svg width="270pt" height="430pt"
 viewBox="0.00 0.00 270.00 430.00" xmlns="http://www.w3.org/2000/svg" xmlns:xlink="http://www.w3.org/1999/xlink">
<g id="graph0" class="graph" transform="scale(1 1) rotate(0) translate(4 426)">
<title>Sklep_internetowy.Server.Services.Auth.AccountService</title>
<!-- Node1 -->
<g id="Node000001" class="node">
<title>Node1</title>
<g id="a_Node000001"><a xlink:title="Serwis odpowiedzialny za obsługę kont użytkowników.">
<polygon fill="#999999" stroke="none" points="201.75,-176 60.25,-176 60.25,0 201.75,0 201.75,-176"/>
<text xml:space="preserve" text-anchor="start" x="64.25" y="-162.5" font-family="Helvetica,sans-Serif" font-size="10.00">Sklep_internetowy.Server.</text>
<text xml:space="preserve" text-anchor="start" x="64.25" y="-150.5" font-family="Helvetica,sans-Serif" font-size="10.00">Services.Auth.AccountService</text>
<text xml:space="preserve" text-anchor="start" x="69.44" y="-134.5" font-family="Helvetica,sans-Serif" font-size="10.00">&#45;</text>
<text xml:space="preserve" text-anchor="start" x="81.62" y="-134.5" font-family="Helvetica,sans-Serif" font-size="10.00">_userManager</text>
<text xml:space="preserve" text-anchor="start" x="69.44" y="-118.5" font-family="Helvetica,sans-Serif" font-size="10.00">&#45;</text>
<text xml:space="preserve" text-anchor="start" x="81.62" y="-118.5" font-family="Helvetica,sans-Serif" font-size="10.00">_roleManager</text>
<text xml:space="preserve" text-anchor="start" x="69.44" y="-102.5" font-family="Helvetica,sans-Serif" font-size="10.00">&#45;</text>
<text xml:space="preserve" text-anchor="start" x="81.62" y="-102.5" font-family="Helvetica,sans-Serif" font-size="10.00">_config</text>
<text xml:space="preserve" text-anchor="start" x="69.44" y="-86.5" font-family="Helvetica,sans-Serif" font-size="10.00">&#45;</text>
<text xml:space="preserve" text-anchor="start" x="81.62" y="-86.5" font-family="Helvetica,sans-Serif" font-size="10.00">_logger</text>
<text xml:space="preserve" text-anchor="start" x="67.94" y="-70.5" font-family="Helvetica,sans-Serif" font-size="10.00">+</text>
<text xml:space="preserve" text-anchor="start" x="81.62" y="-70.5" font-family="Helvetica,sans-Serif" font-size="10.00">AccountService()</text>
<text xml:space="preserve" text-anchor="start" x="67.94" y="-54.5" font-family="Helvetica,sans-Serif" font-size="10.00">+</text>
<text xml:space="preserve" text-anchor="start" x="81.62" y="-54.5" font-family="Helvetica,sans-Serif" font-size="10.00">Register()</text>
<text xml:space="preserve" text-anchor="start" x="67.94" y="-38.5" font-family="Helvetica,sans-Serif" font-size="10.00">+</text>
<text xml:space="preserve" text-anchor="start" x="81.62" y="-38.5" font-family="Helvetica,sans-Serif" font-size="10.00">Login()</text>
<text xml:space="preserve" text-anchor="start" x="67.94" y="-22.5" font-family="Helvetica,sans-Serif" font-size="10.00">+</text>
<text xml:space="preserve" text-anchor="start" x="81.62" y="-22.5" font-family="Helvetica,sans-Serif" font-size="10.00">GetUserByNameAsync()</text>
<text xml:space="preserve" text-anchor="start" x="67.94" y="-6.5" font-family="Helvetica,sans-Serif" font-size="10.00">+</text>
<text xml:space="preserve" text-anchor="start" x="81.62" y="-6.5" font-family="Helvetica,sans-Serif" font-size="10.00">UpdateUserAsync()</text>
<polygon fill="#666666" stroke="#666666" points="60.25,-146 60.25,-146 201.75,-146 201.75,-146 60.25,-146"/>
<polygon fill="#666666" stroke="#666666" points="60.25,-82 60.25,-82 79.62,-82 79.62,-82 60.25,-82"/>
<polygon fill="#666666" stroke="#666666" points="79.62,-82 79.62,-82 201.75,-82 201.75,-82 79.62,-82"/>
<polygon fill="none" stroke="#666666" points="60.25,0 60.25,-176 201.75,-176 201.75,0 60.25,0"/>
</a>
</g>
</g>
<!-- Node2 -->
<g id="Node000002" class="node">
<title>Node2</title>
<g id="a_Node000002"><a xlink:href="class_sklep__internetowy_1_1_server_1_1_data_1_1_store_db_context.html" target="_top" xlink:title="Glowny kontekst bazy danych aplikacji TechStore. Klasa dziedziczy po IdentityDbContext,...">
<polygon fill="white" stroke="none" points="122,-422 0,-422 0,-230 122,-230 122,-422"/>
<text xml:space="preserve" text-anchor="start" x="4" y="-408.5" font-family="Helvetica,sans-Serif" font-size="10.00">Sklep_internetowy.Server.</text>
<text xml:space="preserve" text-anchor="start" x="13.75" y="-396.5" font-family="Helvetica,sans-Serif" font-size="10.00">Data.StoreDbContext</text>
<text xml:space="preserve" text-anchor="start" x="9.56" y="-380.5" font-family="Helvetica,sans-Serif" font-size="10.00">+</text>
<text xml:space="preserve" text-anchor="start" x="25.12" y="-380.5" font-family="Helvetica,sans-Serif" font-size="10.00">Auctions</text>
<text xml:space="preserve" text-anchor="start" x="9.56" y="-364.5" font-family="Helvetica,sans-Serif" font-size="10.00">+</text>
<text xml:space="preserve" text-anchor="start" x="25.12" y="-364.5" font-family="Helvetica,sans-Serif" font-size="10.00">Bids</text>
<text xml:space="preserve" text-anchor="start" x="9.56" y="-348.5" font-family="Helvetica,sans-Serif" font-size="10.00">+</text>
<text xml:space="preserve" text-anchor="start" x="25.12" y="-348.5" font-family="Helvetica,sans-Serif" font-size="10.00">Products</text>
<text xml:space="preserve" text-anchor="start" x="9.56" y="-332.5" font-family="Helvetica,sans-Serif" font-size="10.00">+</text>
<text xml:space="preserve" text-anchor="start" x="25.12" y="-332.5" font-family="Helvetica,sans-Serif" font-size="10.00">Orders</text>
<text xml:space="preserve" text-anchor="start" x="9.56" y="-316.5" font-family="Helvetica,sans-Serif" font-size="10.00">+</text>
<text xml:space="preserve" text-anchor="start" x="25.12" y="-316.5" font-family="Helvetica,sans-Serif" font-size="10.00">OrderProducts</text>
<text xml:space="preserve" text-anchor="start" x="9.56" y="-300.5" font-family="Helvetica,sans-Serif" font-size="10.00">+</text>
<text xml:space="preserve" text-anchor="start" x="25.12" y="-300.5" font-family="Helvetica,sans-Serif" font-size="10.00">Messages</text>
<text xml:space="preserve" text-anchor="start" x="9.56" y="-284.5" font-family="Helvetica,sans-Serif" font-size="10.00">+</text>
<text xml:space="preserve" text-anchor="start" x="25.12" y="-284.5" font-family="Helvetica,sans-Serif" font-size="10.00">ProductCategories</text>
<text xml:space="preserve" text-anchor="start" x="9.56" y="-268.5" font-family="Helvetica,sans-Serif" font-size="10.00">+</text>
<text xml:space="preserve" text-anchor="start" x="25.12" y="-268.5" font-family="Helvetica,sans-Serif" font-size="10.00">ProductImages</text>
<text xml:space="preserve" text-anchor="start" x="9.56" y="-252.5" font-family="Helvetica,sans-Serif" font-size="10.00">+</text>
<text xml:space="preserve" text-anchor="start" x="25.12" y="-252.5" font-family="Helvetica,sans-Serif" font-size="10.00">StoreDbContext()</text>
<text xml:space="preserve" text-anchor="start" x="9.94" y="-236.5" font-family="Helvetica,sans-Serif" font-size="10.00">#</text>
<text xml:space="preserve" text-anchor="start" x="25.12" y="-236.5" font-family="Helvetica,sans-Serif" font-size="10.00">OnModelCreating()</text>
<polygon fill="#666666" stroke="#666666" points="0,-392 0,-392 122,-392 122,-392 0,-392"/>
<polygon fill="#666666" stroke="#666666" points="0,-264 0,-264 23.12,-264 23.12,-264 0,-264"/>
<polygon fill="#666666" stroke="#666666" points="23.12,-264 23.12,-264 122,-264 122,-264 23.12,-264"/>
<polygon fill="none" stroke="#666666" points="0,-230 0,-422 122,-422 122,-230 0,-230"/>
</a>
</g>
</g>
<!-- Node2&#45;&gt;Node1 -->
<g id="edge1_Node000001_Node000002" class="edge">
<title>Node2&#45;&gt;Node1</title>
<g id="a_edge1_Node000001_Node000002"><a xlink:title=" ">
<path fill="none" stroke="#63b8ff" d="M89.17,-230.03C93.28,-216.16 97.53,-201.85 101.66,-187.91"/>
<polygon fill="none" stroke="#63b8ff" points="101.6,-188.13 99.47,-181.24 105.01,-176.63 107.14,-183.52 101.6,-188.13"/>
</a>
</g>
<text xml:space="preserve" text-anchor="start" x="101.1" y="-199.5" font-family="Helvetica,sans-Serif" font-size="10.00" fill="grey">&#45;_context</text>
</g>
<!-- Node3 -->
<g id="Node000003" class="node">
<title>Node3</title>
<g id="a_Node000003"><a xlink:href="class_sklep__internetowy_1_1_server_1_1_services_1_1_auth_1_1_jwt_service.html" target="_top" xlink:title="Serwis odpowiedzialny za generowanie tokenów JWT dla użytkowników.">
<polygon fill="white" stroke="none" points="262,-358 140,-358 140,-294 262,-294 262,-358"/>
<text xml:space="preserve" text-anchor="start" x="144" y="-344.5" font-family="Helvetica,sans-Serif" font-size="10.00">Sklep_internetowy.Server.</text>
<text xml:space="preserve" text-anchor="start" x="144.38" y="-332.5" font-family="Helvetica,sans-Serif" font-size="10.00">Services.Auth.JwtService</text>
<text xml:space="preserve" text-anchor="start" x="199.5" y="-316.5" font-family="Helvetica,sans-Serif" font-size="10.00"> </text>
<text xml:space="preserve" text-anchor="start" x="152" y="-300.5" font-family="Helvetica,sans-Serif" font-size="10.00">+</text>
<text xml:space="preserve" text-anchor="start" x="170" y="-300.5" font-family="Helvetica,sans-Serif" font-size="10.00">GenerateToken()</text>
<polygon fill="#666666" stroke="#666666" points="140,-328 140,-328 262,-328 262,-328 140,-328"/>
<polygon fill="#666666" stroke="#666666" points="140,-312 140,-312 262,-312 262,-312 140,-312"/>
<polygon fill="none" stroke="#666666" points="140,-294 140,-358 262,-358 262,-294 140,-294"/>
</a>
</g>
</g>
<!-- Node3&#45;&gt;Node1 -->
<g id="edge2_Node000001_Node000003" class="edge">
<title>Node3&#45;&gt;Node1</title>
<g id="a_edge2_Node000001_Node000003"><a xlink:title=" ">
<path fill="none" stroke="#63b8ff" d="M191.85,-294.15C183.82,-267.09 171.7,-226.22 160.38,-188.06"/>
<polygon fill="none" stroke="#63b8ff" points="160.41,-188.16 154.87,-183.54 157,-176.65 162.54,-181.27 160.41,-188.16"/>
</a>
</g>
<text xml:space="preserve" text-anchor="start" x="169" y="-199.5" font-family="Helvetica,sans-Serif" font-size="10.00" fill="grey">&#45;_jwtService</text>
</g>
</g>
</svg>
