<?xml version="1.0" encoding="UTF-8" standalone="no"?>
<!DOCTYPE svg PUBLIC "-//W3C//DTD SVG 1.1//EN"
 "http://www.w3.org/Graphics/SVG/1.1/DTD/svg11.dtd">
<!-- Generated by graphviz version 14.1.1 (20251213.1925)
 -->
<!-- Title: Sklep_internetowy.Server.DTOs.ProductCategoryDto Pages: 1 -->
<svg width="135pt" height="120pt"
 viewBox="0.00 0.00 135.00 120.00" xmlns="http://www.w3.org/2000/svg" xmlns:xlink="http://www.w3.org/1999/xlink">
<g id="graph0" class="graph" transform="scale(1 1) rotate(0) translate(4 116)">
<title>Sklep_internetowy.Server.DTOs.ProductCategoryDto</title>
<!-- Node1 -->
<g id="Node000001" class="node">
<title>Node1</title>
<g id="a_Node000001"><a xlink:title="Obiekt transferu danych (DTO) reprezentujący kategorię produktów w systemie. Służy do przesyłania pod...">
<polygon fill="#999999" stroke="none" points="126.5,-112 0,-112 0,0 126.5,0 126.5,-112"/>
<text xml:space="preserve" text-anchor="start" x="4" y="-98.5" font-family="Helvetica,sans-Serif" font-size="10.00">Sklep_internetowy.Server.</text>
<text xml:space="preserve" text-anchor="start" x="4" y="-86.5" font-family="Helvetica,sans-Serif" font-size="10.00">DTOs.ProductCategoryDto</text>
<text xml:space="preserve" text-anchor="start" x="18.75" y="-70.5" font-family="Helvetica,sans-Serif" font-size="10.00">+</text>
<text xml:space="preserve" text-anchor="start" x="43.5" y="-70.5" font-family="Helvetica,sans-Serif" font-size="10.00">Id</text>
<text xml:space="preserve" text-anchor="start" x="18.75" y="-54.5" font-family="Helvetica,sans-Serif" font-size="10.00">+</text>
<text xml:space="preserve" text-anchor="start" x="43.5" y="-54.5" font-family="Helvetica,sans-Serif" font-size="10.00">Name</text>
<text xml:space="preserve" text-anchor="start" x="18.75" y="-38.5" font-family="Helvetica,sans-Serif" font-size="10.00">+</text>
<text xml:space="preserve" text-anchor="start" x="43.5" y="-38.5" font-family="Helvetica,sans-Serif" font-size="10.00">Slug</text>
<text xml:space="preserve" text-anchor="start" x="18.75" y="-22.5" font-family="Helvetica,sans-Serif" font-size="10.00">+</text>
<text xml:space="preserve" text-anchor="start" x="43.5" y="-22.5" font-family="Helvetica,sans-Serif" font-size="10.00">Description</text>
<text xml:space="preserve" text-anchor="start" x="61.75" y="-6.5" font-family="Helvetica,sans-Serif" font-size="10.00"> </text>
<polygon fill="#666666" stroke="#666666" points="0,-82 0,-82 126.5,-82 126.5,-82 0,-82"/>
<polygon fill="#666666" stroke="#666666" points="0,-18 0,-18 41.5,-18 41.5,-18 0,-18"/>
<polygon fill="#666666" stroke="#666666" points="41.5,-18 41.5,-18 126.5,-18 126.5,-18 41.5,-18"/>
<polygon fill="none" stroke="#666666" points="0,0 0,-112 126.5,-112 126.5,0 0,0"/>
</a>
</g>
</g>
</g>
</svg>
