<?xml version="1.0" encoding="UTF-8" standalone="no"?>
<!DOCTYPE svg PUBLIC "-//W3C//DTD SVG 1.1//EN"
 "http://www.w3.org/Graphics/SVG/1.1/DTD/svg11.dtd">
<!-- Generated by graphviz version 14.1.1 (20251213.1925)
 -->
<!-- Title: Sklep_internetowy.Server.Services.Bidding.AuctionBackgroundService Pages: 1 -->
<svg width="177pt" height="100pt"
 viewBox="0.00 0.00 177.00 100.00" xmlns="http://www.w3.org/2000/svg" xmlns:xlink="http://www.w3.org/1999/xlink">
<g id="graph0" class="graph" transform="scale(1 1) rotate(0) translate(4 96)">
<title>Sklep_internetowy.Server.Services.Bidding.AuctionBackgroundService</title>
<!-- Node1 -->
<g id="Node000001" class="node">
<title>Node1</title>
<g id="a_Node000001"><a xlink:title="Usługa działająca w tle odpowiedzialna za automatyczne kończenie aukcji.">
<polygon fill="#999999" stroke="none" points="169.25,-92 0,-92 0,0 169.25,0 169.25,-92"/>
<text xml:space="preserve" text-anchor="start" x="4" y="-78.5" font-family="Helvetica,sans-Serif" font-size="10.00">Sklep_internetowy.Server.</text>
<text xml:space="preserve" text-anchor="start" x="4" y="-66.5" font-family="Helvetica,sans-Serif" font-size="10.00">Services.Bidding.AuctionBackground</text>
<text xml:space="preserve" text-anchor="start" x="68.12" y="-54.5" font-family="Helvetica,sans-Serif" font-size="10.00">Service</text>
<text xml:space="preserve" text-anchor="start" x="12.38" y="-38.5" font-family="Helvetica,sans-Serif" font-size="10.00">&#45;</text>
<text xml:space="preserve" text-anchor="start" x="27.75" y="-38.5" font-family="Helvetica,sans-Serif" font-size="10.00">_scopeFactory</text>
<text xml:space="preserve" text-anchor="start" x="10.88" y="-22.5" font-family="Helvetica,sans-Serif" font-size="10.00">+</text>
<text xml:space="preserve" text-anchor="start" x="27.75" y="-22.5" font-family="Helvetica,sans-Serif" font-size="10.00">AuctionBackgroundService()</text>
<text xml:space="preserve" text-anchor="start" x="11.25" y="-6.5" font-family="Helvetica,sans-Serif" font-size="10.00">#</text>
<text xml:space="preserve" text-anchor="start" x="27.75" y="-6.5" font-family="Helvetica,sans-Serif" font-size="10.00">ExecuteAsync()</text>
<polygon fill="#666666" stroke="#666666" points="0,-50 0,-50 169.25,-50 169.25,-50 0,-50"/>
<polygon fill="#666666" stroke="#666666" points="0,-34 0,-34 25.75,-34 25.75,-34 0,-34"/>
<polygon fill="#666666" stroke="#666666" points="25.75,-34 25.75,-34 169.25,-34 169.25,-34 25.75,-34"/>
<polygon fill="none" stroke="#666666" points="0,0 0,-92 169.25,-92 169.25,0 0,0"/>
</a>
</g>
</g>
</g>
</svg>
