<?xml version="1.0" encoding="UTF-8" standalone="no"?>
<!DOCTYPE svg PUBLIC "-//W3C//DTD SVG 1.1//EN"
 "http://www.w3.org/Graphics/SVG/1.1/DTD/svg11.dtd">
<!-- Generated by graphviz version 14.1.1 (20251213.1925)
 -->
<!-- Title: Sklep_internetowy.Server.Services.Bidding.AuctionHub Pages: 1 -->
<svg width="162pt" height="596pt"
 viewBox="0.00 0.00 162.00 596.00" xmlns="http://www.w3.org/2000/svg" xmlns:xlink="http://www.w3.org/1999/xlink">
<g id="graph0" class="graph" transform="scale(1 1) rotate(0) translate(4 592)">
<title>Sklep_internetowy.Server.Services.Bidding.AuctionHub</title>
<!-- Node1 -->
<g id="Node000001" class="node">
<title>Node1</title>
<g id="a_Node000001"><a xlink:title="Hub SignalR odpowiedzialny za komunikację w czasie rzeczywistym dla aukcji.">
<polygon fill="#999999" stroke="none" points="143,-144 7.5,-144 7.5,0 143,0 143,-144"/>
<text xml:space="preserve" text-anchor="start" x="11.5" y="-130.5" font-family="Helvetica,sans-Serif" font-size="10.00">Sklep_internetowy.Server.</text>
<text xml:space="preserve" text-anchor="start" x="11.5" y="-118.5" font-family="Helvetica,sans-Serif" font-size="10.00">Services.Bidding.AuctionHub</text>
<text xml:space="preserve" text-anchor="start" x="73.75" y="-102.5" font-family="Helvetica,sans-Serif" font-size="10.00"> </text>
<text xml:space="preserve" text-anchor="start" x="17.44" y="-86.5" font-family="Helvetica,sans-Serif" font-size="10.00">+</text>
<text xml:space="preserve" text-anchor="start" x="33.38" y="-86.5" font-family="Helvetica,sans-Serif" font-size="10.00">AuctionHub()</text>
<text xml:space="preserve" text-anchor="start" x="17.44" y="-70.5" font-family="Helvetica,sans-Serif" font-size="10.00">+</text>
<text xml:space="preserve" text-anchor="start" x="33.38" y="-70.5" font-family="Helvetica,sans-Serif" font-size="10.00">OnConnectedAsync()</text>
<text xml:space="preserve" text-anchor="start" x="17.44" y="-54.5" font-family="Helvetica,sans-Serif" font-size="10.00">+</text>
<text xml:space="preserve" text-anchor="start" x="33.38" y="-54.5" font-family="Helvetica,sans-Serif" font-size="10.00">JoinAuction()</text>
<text xml:space="preserve" text-anchor="start" x="17.44" y="-38.5" font-family="Helvetica,sans-Serif" font-size="10.00">+</text>
<text xml:space="preserve" text-anchor="start" x="33.38" y="-38.5" font-family="Helvetica,sans-Serif" font-size="10.00">PlaceBid()</text>
<text xml:space="preserve" text-anchor="start" x="17.44" y="-22.5" font-family="Helvetica,sans-Serif" font-size="10.00">+</text>
<text xml:space="preserve" text-anchor="start" x="33.38" y="-22.5" font-family="Helvetica,sans-Serif" font-size="10.00">FinishAuction()</text>
<text xml:space="preserve" text-anchor="start" x="18.94" y="-6.5" font-family="Helvetica,sans-Serif" font-size="10.00">&#45;</text>
<text xml:space="preserve" text-anchor="start" x="33.38" y="-6.5" font-family="Helvetica,sans-Serif" font-size="10.00">GetGroupName()</text>
<polygon fill="#666666" stroke="#666666" points="7.5,-114 7.5,-114 143,-114 143,-114 7.5,-114"/>
<polygon fill="#666666" stroke="#666666" points="7.5,-98 7.5,-98 143,-98 143,-98 7.5,-98"/>
<polygon fill="none" stroke="#666666" points="7.5,0 7.5,-144 143,-144 143,0 7.5,0"/>
</a>
</g>
</g>
<!-- Node2 -->
<g id="Node000002" class="node">
<title>Node2</title>
<g id="a_Node000002"><a xlink:href="class_sklep__internetowy_1_1_server_1_1_services_1_1_bidding_1_1_auction_service.html" target="_top" xlink:title="Serwis odpowiedzialny za pełną obsługę logiki aukcji.">
<polygon fill="white" stroke="none" points="150.5,-342 0,-342 0,-198 150.5,-198 150.5,-342"/>
<text xml:space="preserve" text-anchor="start" x="4" y="-328.5" font-family="Helvetica,sans-Serif" font-size="10.00">Sklep_internetowy.Server.</text>
<text xml:space="preserve" text-anchor="start" x="4" y="-316.5" font-family="Helvetica,sans-Serif" font-size="10.00">Services.Bidding.AuctionService</text>
<text xml:space="preserve" text-anchor="start" x="73.75" y="-300.5" font-family="Helvetica,sans-Serif" font-size="10.00"> </text>
<text xml:space="preserve" text-anchor="start" x="8.25" y="-284.5" font-family="Helvetica,sans-Serif" font-size="10.00">+</text>
<text xml:space="preserve" text-anchor="start" x="22.5" y="-284.5" font-family="Helvetica,sans-Serif" font-size="10.00">AuctionService()</text>
<text xml:space="preserve" text-anchor="start" x="8.25" y="-268.5" font-family="Helvetica,sans-Serif" font-size="10.00">+</text>
<text xml:space="preserve" text-anchor="start" x="22.5" y="-268.5" font-family="Helvetica,sans-Serif" font-size="10.00">CreateAuctionAsync()</text>
<text xml:space="preserve" text-anchor="start" x="8.25" y="-252.5" font-family="Helvetica,sans-Serif" font-size="10.00">+</text>
<text xml:space="preserve" text-anchor="start" x="22.5" y="-252.5" font-family="Helvetica,sans-Serif" font-size="10.00">GetAuctionByIdAsync()</text>
<text xml:space="preserve" text-anchor="start" x="8.25" y="-236.5" font-family="Helvetica,sans-Serif" font-size="10.00">+</text>
<text xml:space="preserve" text-anchor="start" x="22.5" y="-236.5" font-family="Helvetica,sans-Serif" font-size="10.00">PlaceBidAsync()</text>
<text xml:space="preserve" text-anchor="start" x="8.25" y="-220.5" font-family="Helvetica,sans-Serif" font-size="10.00">+</text>
<text xml:space="preserve" text-anchor="start" x="22.5" y="-220.5" font-family="Helvetica,sans-Serif" font-size="10.00">GetActiveAuctionsAsync()</text>
<text xml:space="preserve" text-anchor="start" x="8.25" y="-204.5" font-family="Helvetica,sans-Serif" font-size="10.00">+</text>
<text xml:space="preserve" text-anchor="start" x="22.5" y="-204.5" font-family="Helvetica,sans-Serif" font-size="10.00">FinishAuctionAsync()</text>
<polygon fill="#666666" stroke="#666666" points="0,-312 0,-312 150.5,-312 150.5,-312 0,-312"/>
<polygon fill="#666666" stroke="#666666" points="0,-296 0,-296 150.5,-296 150.5,-296 0,-296"/>
<polygon fill="none" stroke="#666666" points="0,-198 0,-342 150.5,-342 150.5,-198 0,-198"/>
</a>
</g>
</g>
<!-- Node2&#45;&gt;Node1 -->
<g id="edge1_Node000001_Node000002" class="edge">
<title>Node2&#45;&gt;Node1</title>
<g id="a_edge1_Node000001_Node000002"><a xlink:title=" ">
<path fill="none" stroke="#63b8ff" d="M75.25,-198.24C75.25,-184.86 75.25,-170.75 75.25,-157.01"/>
<polygon fill="none" stroke="#63b8ff" points="75.25,-156.89 71.25,-150.89 75.25,-144.89 79.25,-150.89 75.25,-156.89"/>
</a>
</g>
<text xml:space="preserve" text-anchor="start" x="78.25" y="-167.5" font-family="Helvetica,sans-Serif" font-size="10.00" fill="grey">&#45;_auctionService</text>
</g>
<!-- Node3 -->
<g id="Node000003" class="node">
<title>Node3</title>
<g id="a_Node000003"><a xlink:href="class_sklep__internetowy_1_1_server_1_1_data_1_1_store_db_context.html" target="_top" xlink:title="Glowny kontekst bazy danych aplikacji TechStore. Klasa dziedziczy po IdentityDbContext,...">
<polygon fill="white" stroke="none" points="136.25,-588 14.25,-588 14.25,-396 136.25,-396 136.25,-588"/>
<text xml:space="preserve" text-anchor="start" x="18.25" y="-574.5" font-family="Helvetica,sans-Serif" font-size="10.00">Sklep_internetowy.Server.</text>
<text xml:space="preserve" text-anchor="start" x="28" y="-562.5" font-family="Helvetica,sans-Serif" font-size="10.00">Data.StoreDbContext</text>
<text xml:space="preserve" text-anchor="start" x="23.81" y="-546.5" font-family="Helvetica,sans-Serif" font-size="10.00">+</text>
<text xml:space="preserve" text-anchor="start" x="39.38" y="-546.5" font-family="Helvetica,sans-Serif" font-size="10.00">Auctions</text>
<text xml:space="preserve" text-anchor="start" x="23.81" y="-530.5" font-family="Helvetica,sans-Serif" font-size="10.00">+</text>
<text xml:space="preserve" text-anchor="start" x="39.38" y="-530.5" font-family="Helvetica,sans-Serif" font-size="10.00">Bids</text>
<text xml:space="preserve" text-anchor="start" x="23.81" y="-514.5" font-family="Helvetica,sans-Serif" font-size="10.00">+</text>
<text xml:space="preserve" text-anchor="start" x="39.38" y="-514.5" font-family="Helvetica,sans-Serif" font-size="10.00">Products</text>
<text xml:space="preserve" text-anchor="start" x="23.81" y="-498.5" font-family="Helvetica,sans-Serif" font-size="10.00">+</text>
<text xml:space="preserve" text-anchor="start" x="39.38" y="-498.5" font-family="Helvetica,sans-Serif" font-size="10.00">Orders</text>
<text xml:space="preserve" text-anchor="start" x="23.81" y="-482.5" font-family="Helvetica,sans-Serif" font-size="10.00">+</text>
<text xml:space="preserve" text-anchor="start" x="39.38" y="-482.5" font-family="Helvetica,sans-Serif" font-size="10.00">OrderProducts</text>
<text xml:space="preserve" text-anchor="start" x="23.81" y="-466.5" font-family="Helvetica,sans-Serif" font-size="10.00">+</text>
<text xml:space="preserve" text-anchor="start" x="39.38" y="-466.5" font-family="Helvetica,sans-Serif" font-size="10.00">Messages</text>
<text xml:space="preserve" text-anchor="start" x="23.81" y="-450.5" font-family="Helvetica,sans-Serif" font-size="10.00">+</text>
<text xml:space="preserve" text-anchor="start" x="39.38" y="-450.5" font-family="Helvetica,sans-Serif" font-size="10.00">ProductCategories</text>
<text xml:space="preserve" text-anchor="start" x="23.81" y="-434.5" font-family="Helvetica,sans-Serif" font-size="10.00">+</text>
<text xml:space="preserve" text-anchor="start" x="39.38" y="-434.5" font-family="Helvetica,sans-Serif" font-size="10.00">ProductImages</text>
<text xml:space="preserve" text-anchor="start" x="23.81" y="-418.5" font-family="Helvetica,sans-Serif" font-size="10.00">+</text>
<text xml:space="preserve" text-anchor="start" x="39.38" y="-418.5" font-family="Helvetica,sans-Serif" font-size="10.00">StoreDbContext()</text>
<text xml:space="preserve" text-anchor="start" x="24.19" y="-402.5" font-family="Helvetica,sans-Serif" font-size="10.00">#</text>
<text xml:space="preserve" text-anchor="start" x="39.38" y="-402.5" font-family="Helvetica,sans-Serif" font-size="10.00">OnModelCreating()</text>
<polygon fill="#666666" stroke="#666666" points="14.25,-558 14.25,-558 136.25,-558 136.25,-558 14.25,-558"/>
<polygon fill="#666666" stroke="#666666" points="14.25,-430 14.25,-430 37.38,-430 37.38,-430 14.25,-430"/>
<polygon fill="#666666" stroke="#666666" points="37.38,-430 37.38,-430 136.25,-430 136.25,-430 37.38,-430"/>
<polygon fill="none" stroke="#666666" points="14.25,-396 14.25,-588 136.25,-588 136.25,-396 14.25,-396"/>
</a>
</g>
</g>
<!-- Node3&#45;&gt;Node2 -->
<g id="edge2_Node000002_Node000003" class="edge">
<title>Node3&#45;&gt;Node2</title>
<g id="a_edge2_Node000002_Node000003"><a xlink:title=" ">
<path fill="none" stroke="#63b8ff" d="M75.25,-396.1C75.25,-382.27 75.25,-368.11 75.25,-354.52"/>
<polygon fill="none" stroke="#63b8ff" points="75.25,-354.6 71.25,-348.6 75.25,-342.6 79.25,-348.6 75.25,-354.6"/>
</a>
</g>
<text xml:space="preserve" text-anchor="start" x="78.25" y="-365.5" font-family="Helvetica,sans-Serif" font-size="10.00" fill="grey">&#45;_context</text>
</g>
</g>
</svg>
