<?xml version="1.0" encoding="UTF-8" standalone="no"?>
<!DOCTYPE svg PUBLIC "-//W3C//DTD SVG 1.1//EN"
 "http://www.w3.org/Graphics/SVG/1.1/DTD/svg11.dtd">
<!-- Generated by graphviz version 14.1.1 (20251213.1925)
 -->
<!-- Title: Sklep_internetowy.Server.Models.UserMessage Pages: 1 -->
<svg width="130pt" height="152pt"
 viewBox="0.00 0.00 130.00 152.00" xmlns="http://www.w3.org/2000/svg" xmlns:xlink="http://www.w3.org/1999/xlink">
<g id="graph0" class="graph" transform="scale(1 1) rotate(0) translate(4 148)">
<title>Sklep_internetowy.Server.Models.UserMessage</title>
<!-- Node1 -->
<g id="Node000001" class="node">
<title>Node1</title>
<g id="a_Node000001"><a xlink:title="Klasa reprezentująca wiadomość przesłaną przez użytkownika poprzez formularz kontaktowy....">
<polygon fill="#999999" stroke="none" points="122,-144 0,-144 0,0 122,0 122,-144"/>
<text xml:space="preserve" text-anchor="start" x="4" y="-130.5" font-family="Helvetica,sans-Serif" font-size="10.00">Sklep_internetowy.Server.</text>
<text xml:space="preserve" text-anchor="start" x="13.38" y="-118.5" font-family="Helvetica,sans-Serif" font-size="10.00">Models.UserMessage</text>
<text xml:space="preserve" text-anchor="start" x="18.94" y="-102.5" font-family="Helvetica,sans-Serif" font-size="10.00">+</text>
<text xml:space="preserve" text-anchor="start" x="43.88" y="-102.5" font-family="Helvetica,sans-Serif" font-size="10.00">Id</text>
<text xml:space="preserve" text-anchor="start" x="18.94" y="-86.5" font-family="Helvetica,sans-Serif" font-size="10.00">+</text>
<text xml:space="preserve" text-anchor="start" x="43.88" y="-86.5" font-family="Helvetica,sans-Serif" font-size="10.00">Email</text>
<text xml:space="preserve" text-anchor="start" x="18.94" y="-70.5" font-family="Helvetica,sans-Serif" font-size="10.00">+</text>
<text xml:space="preserve" text-anchor="start" x="43.88" y="-70.5" font-family="Helvetica,sans-Serif" font-size="10.00">Name</text>
<text xml:space="preserve" text-anchor="start" x="18.94" y="-54.5" font-family="Helvetica,sans-Serif" font-size="10.00">+</text>
<text xml:space="preserve" text-anchor="start" x="43.88" y="-54.5" font-family="Helvetica,sans-Serif" font-size="10.00">Phone</text>
<text xml:space="preserve" text-anchor="start" x="18.94" y="-38.5" font-family="Helvetica,sans-Serif" font-size="10.00">+</text>
<text xml:space="preserve" text-anchor="start" x="43.88" y="-38.5" font-family="Helvetica,sans-Serif" font-size="10.00">Content</text>
<text xml:space="preserve" text-anchor="start" x="18.94" y="-22.5" font-family="Helvetica,sans-Serif" font-size="10.00">+</text>
<text xml:space="preserve" text-anchor="start" x="43.88" y="-22.5" font-family="Helvetica,sans-Serif" font-size="10.00">CreatedAt</text>
<text xml:space="preserve" text-anchor="start" x="59.5" y="-6.5" font-family="Helvetica,sans-Serif" font-size="10.00"> </text>
<polygon fill="#666666" stroke="#666666" points="0,-114 0,-114 122,-114 122,-114 0,-114"/>
<polygon fill="#666666" stroke="#666666" points="0,-18 0,-18 41.88,-18 41.88,-18 0,-18"/>
<polygon fill="#666666" stroke="#666666" points="41.88,-18 41.88,-18 122,-18 122,-18 41.88,-18"/>
<polygon fill="none" stroke="#666666" points="0,0 0,-144 122,-144 122,0 0,0"/>
</a>
</g>
</g>
</g>
</svg>
