<?xml version="1.0" encoding="UTF-8" standalone="no"?>
<!DOCTYPE svg PUBLIC "-//W3C//DTD SVG 1.1//EN"
 "http://www.w3.org/Graphics/SVG/1.1/DTD/svg11.dtd">
<!-- Generated by graphviz version 14.1.1 (20251213.1925)
 -->
<!-- Title: Sklep_internetowy.Server.Controllers.Payment.PaymentRequest Pages: 1 -->
<svg width="184pt" height="72pt"
 viewBox="0.00 0.00 184.00 72.00" xmlns="http://www.w3.org/2000/svg" xmlns:xlink="http://www.w3.org/1999/xlink">
<g id="graph0" class="graph" transform="scale(1 1) rotate(0) translate(4 68)">
<title>Sklep_internetowy.Server.Controllers.Payment.PaymentRequest</title>
<!-- Node1 -->
<g id="Node000001" class="node">
<title>Node1</title>
<g id="a_Node000001"><a xlink:title="Klasa pomocnicza (DTO) reprezentujaca zadanie utworzenia platnosci.">
<polygon fill="#999999" stroke="none" points="176,-64 0,-64 0,0 176,0 176,-64"/>
<text xml:space="preserve" text-anchor="start" x="4" y="-50.5" font-family="Helvetica,sans-Serif" font-size="10.00">Sklep_internetowy.Server.</text>
<text xml:space="preserve" text-anchor="start" x="4" y="-38.5" font-family="Helvetica,sans-Serif" font-size="10.00">Controllers.Payment.PaymentRequest</text>
<text xml:space="preserve" text-anchor="start" x="35.06" y="-22.5" font-family="Helvetica,sans-Serif" font-size="10.00">+</text>
<text xml:space="preserve" text-anchor="start" x="76.12" y="-22.5" font-family="Helvetica,sans-Serif" font-size="10.00">Amount</text>
<text xml:space="preserve" text-anchor="start" x="86.5" y="-6.5" font-family="Helvetica,sans-Serif" font-size="10.00"> </text>
<polygon fill="#666666" stroke="#666666" points="0,-34 0,-34 176,-34 176,-34 0,-34"/>
<polygon fill="#666666" stroke="#666666" points="0,-18 0,-18 74.12,-18 74.12,-18 0,-18"/>
<polygon fill="#666666" stroke="#666666" points="74.12,-18 74.12,-18 176,-18 176,-18 74.12,-18"/>
<polygon fill="none" stroke="#666666" points="0,0 0,-64 176,-64 176,0 0,0"/>
</a>
</g>
</g>
</g>
</svg>
