<?xml version="1.0" encoding="UTF-8" standalone="no"?>
<!DOCTYPE svg PUBLIC "-//W3C//DTD SVG 1.1//EN"
 "http://www.w3.org/Graphics/SVG/1.1/DTD/svg11.dtd">
<!-- Generated by graphviz version 14.1.1 (20251213.1925)
 -->
<!-- Title: Sklep_internetowy.Server.Controllers.Admin.ApplyBulkDiscountRequest Pages: 1 -->
<svg width="180pt" height="116pt"
 viewBox="0.00 0.00 180.00 116.00" xmlns="http://www.w3.org/2000/svg" xmlns:xlink="http://www.w3.org/1999/xlink">
<g id="graph0" class="graph" transform="scale(1 1) rotate(0) translate(4 112)">
<title>Sklep_internetowy.Server.Controllers.Admin.ApplyBulkDiscountRequest</title>
<!-- Node1 -->
<g id="Node000001" class="node">
<title>Node1</title>
<g id="a_Node000001"><a xlink:title="Klasa pomocnicza (DTO) reprezentujaca zadanie masowego nalozenia rabatow.">
<polygon fill="#999999" stroke="none" points="172.25,-108 0,-108 0,0 172.25,0 172.25,-108"/>
<text xml:space="preserve" text-anchor="start" x="4" y="-94.5" font-family="Helvetica,sans-Serif" font-size="10.00">Sklep_internetowy.Server.</text>
<text xml:space="preserve" text-anchor="start" x="4" y="-82.5" font-family="Helvetica,sans-Serif" font-size="10.00">Controllers.Admin.ApplyBulkDiscount</text>
<text xml:space="preserve" text-anchor="start" x="67.75" y="-70.5" font-family="Helvetica,sans-Serif" font-size="10.00">Request</text>
<text xml:space="preserve" text-anchor="start" x="27.56" y="-54.5" font-family="Helvetica,sans-Serif" font-size="10.00">+</text>
<text xml:space="preserve" text-anchor="start" x="61.12" y="-54.5" font-family="Helvetica,sans-Serif" font-size="10.00">ProductIds</text>
<text xml:space="preserve" text-anchor="start" x="27.56" y="-38.5" font-family="Helvetica,sans-Serif" font-size="10.00">+</text>
<text xml:space="preserve" text-anchor="start" x="61.12" y="-38.5" font-family="Helvetica,sans-Serif" font-size="10.00">Percentage</text>
<text xml:space="preserve" text-anchor="start" x="27.56" y="-22.5" font-family="Helvetica,sans-Serif" font-size="10.00">+</text>
<text xml:space="preserve" text-anchor="start" x="61.12" y="-22.5" font-family="Helvetica,sans-Serif" font-size="10.00">DurationDays</text>
<text xml:space="preserve" text-anchor="start" x="84.62" y="-6.5" font-family="Helvetica,sans-Serif" font-size="10.00"> </text>
<polygon fill="#666666" stroke="#666666" points="0,-66 0,-66 172.25,-66 172.25,-66 0,-66"/>
<polygon fill="#666666" stroke="#666666" points="0,-18 0,-18 59.12,-18 59.12,-18 0,-18"/>
<polygon fill="#666666" stroke="#666666" points="59.12,-18 59.12,-18 172.25,-18 172.25,-18 59.12,-18"/>
<polygon fill="none" stroke="#666666" points="0,0 0,-108 172.25,-108 172.25,0 0,0"/>
</a>
</g>
</g>
</g>
</svg>
