<?xml version="1.0" encoding="UTF-8" standalone="no"?>
<!DOCTYPE svg PUBLIC "-//W3C//DTD SVG 1.1//EN"
 "http://www.w3.org/Graphics/SVG/1.1/DTD/svg11.dtd">
<!-- Generated by graphviz version 14.1.1 (20251213.1925)
 -->
<!-- Title: Sklep_internetowy.Server.Models.ProductCategory Pages: 1 -->
<svg width="130pt" height="136pt"
 viewBox="0.00 0.00 130.00 136.00" xmlns="http://www.w3.org/2000/svg" xmlns:xlink="http://www.w3.org/1999/xlink">
<g id="graph0" class="graph" transform="scale(1 1) rotate(0) translate(4 132)">
<title>Sklep_internetowy.Server.Models.ProductCategory</title>
<!-- Node1 -->
<g id="Node000001" class="node">
<title>Node1</title>
<g id="a_Node000001"><a xlink:title="Klasa reprezentująca kategorię produktów w systemie TechStore. Służy do logicznego grupowania towarów...">
<polygon fill="#999999" stroke="none" points="122,-128 0,-128 0,0 122,0 122,-128"/>
<text xml:space="preserve" text-anchor="start" x="4" y="-114.5" font-family="Helvetica,sans-Serif" font-size="10.00">Sklep_internetowy.Server.</text>
<text xml:space="preserve" text-anchor="start" x="7" y="-102.5" font-family="Helvetica,sans-Serif" font-size="10.00">Models.ProductCategory</text>
<text xml:space="preserve" text-anchor="start" x="17.62" y="-86.5" font-family="Helvetica,sans-Serif" font-size="10.00">+</text>
<text xml:space="preserve" text-anchor="start" x="41.25" y="-86.5" font-family="Helvetica,sans-Serif" font-size="10.00">Id</text>
<text xml:space="preserve" text-anchor="start" x="17.62" y="-70.5" font-family="Helvetica,sans-Serif" font-size="10.00">+</text>
<text xml:space="preserve" text-anchor="start" x="41.25" y="-70.5" font-family="Helvetica,sans-Serif" font-size="10.00">Name</text>
<text xml:space="preserve" text-anchor="start" x="17.62" y="-54.5" font-family="Helvetica,sans-Serif" font-size="10.00">+</text>
<text xml:space="preserve" text-anchor="start" x="41.25" y="-54.5" font-family="Helvetica,sans-Serif" font-size="10.00">Slug</text>
<text xml:space="preserve" text-anchor="start" x="17.62" y="-38.5" font-family="Helvetica,sans-Serif" font-size="10.00">+</text>
<text xml:space="preserve" text-anchor="start" x="41.25" y="-38.5" font-family="Helvetica,sans-Serif" font-size="10.00">Description</text>
<text xml:space="preserve" text-anchor="start" x="17.62" y="-22.5" font-family="Helvetica,sans-Serif" font-size="10.00">+</text>
<text xml:space="preserve" text-anchor="start" x="41.25" y="-22.5" font-family="Helvetica,sans-Serif" font-size="10.00">Products</text>
<text xml:space="preserve" text-anchor="start" x="59.5" y="-6.5" font-family="Helvetica,sans-Serif" font-size="10.00"> </text>
<polygon fill="#666666" stroke="#666666" points="0,-98 0,-98 122,-98 122,-98 0,-98"/>
<polygon fill="#666666" stroke="#666666" points="0,-18 0,-18 39.25,-18 39.25,-18 0,-18"/>
<polygon fill="#666666" stroke="#666666" points="39.25,-18 39.25,-18 122,-18 122,-18 39.25,-18"/>
<polygon fill="none" stroke="#666666" points="0,0 0,-128 122,-128 122,0 0,0"/>
</a>
</g>
</g>
</g>
</svg>
