<?xml version="1.0" encoding="UTF-8" standalone="no"?>
<!DOCTYPE svg PUBLIC "-//W3C//DTD SVG 1.1//EN"
 "http://www.w3.org/Graphics/SVG/1.1/DTD/svg11.dtd">
<!-- Generated by graphviz version 14.1.1 (20251213.1925)
 -->
<!-- Title: Sklep_internetowy.Server.Models.User Pages: 1 -->
<svg width="130pt" height="120pt"
 viewBox="0.00 0.00 130.00 120.00" xmlns="http://www.w3.org/2000/svg" xmlns:xlink="http://www.w3.org/1999/xlink">
<g id="graph0" class="graph" transform="scale(1 1) rotate(0) translate(4 116)">
<title>Sklep_internetowy.Server.Models.User</title>
<!-- Node1 -->
<g id="Node000001" class="node">
<title>Node1</title>
<g id="a_Node000001"><a xlink:title="Rozszerzona klasa użytkownika systemu, dziedzicząca po IdentityUser. Przechowuje dodatkowe dane profi...">
<polygon fill="#999999" stroke="none" points="122,-112 0,-112 0,0 122,0 122,-112"/>
<text xml:space="preserve" text-anchor="start" x="4" y="-98.5" font-family="Helvetica,sans-Serif" font-size="10.00">Sklep_internetowy.Server.</text>
<text xml:space="preserve" text-anchor="start" x="33.25" y="-86.5" font-family="Helvetica,sans-Serif" font-size="10.00">Models.User</text>
<text xml:space="preserve" text-anchor="start" x="18.56" y="-70.5" font-family="Helvetica,sans-Serif" font-size="10.00">+</text>
<text xml:space="preserve" text-anchor="start" x="43.12" y="-70.5" font-family="Helvetica,sans-Serif" font-size="10.00">FirstName</text>
<text xml:space="preserve" text-anchor="start" x="18.56" y="-54.5" font-family="Helvetica,sans-Serif" font-size="10.00">+</text>
<text xml:space="preserve" text-anchor="start" x="43.12" y="-54.5" font-family="Helvetica,sans-Serif" font-size="10.00">LastName</text>
<text xml:space="preserve" text-anchor="start" x="18.56" y="-38.5" font-family="Helvetica,sans-Serif" font-size="10.00">+</text>
<text xml:space="preserve" text-anchor="start" x="43.12" y="-38.5" font-family="Helvetica,sans-Serif" font-size="10.00">CreatedAt</text>
<text xml:space="preserve" text-anchor="start" x="18.56" y="-22.5" font-family="Helvetica,sans-Serif" font-size="10.00">+</text>
<text xml:space="preserve" text-anchor="start" x="43.12" y="-22.5" font-family="Helvetica,sans-Serif" font-size="10.00">Orders</text>
<text xml:space="preserve" text-anchor="start" x="59.5" y="-6.5" font-family="Helvetica,sans-Serif" font-size="10.00"> </text>
<polygon fill="#666666" stroke="#666666" points="0,-82 0,-82 122,-82 122,-82 0,-82"/>
<polygon fill="#666666" stroke="#666666" points="0,-18 0,-18 41.12,-18 41.12,-18 0,-18"/>
<polygon fill="#666666" stroke="#666666" points="41.12,-18 41.12,-18 122,-18 122,-18 41.12,-18"/>
<polygon fill="none" stroke="#666666" points="0,0 0,-112 122,-112 122,0 0,0"/>
</a>
</g>
</g>
</g>
</svg>
