<?xml version="1.0" encoding="UTF-8" standalone="no"?>
<!DOCTYPE svg PUBLIC "-//W3C//DTD SVG 1.1//EN"
 "http://www.w3.org/Graphics/SVG/1.1/DTD/svg11.dtd">
<!-- Generated by graphviz version 14.1.1 (20251213.1925)
 -->
<!-- Title: Sklep_internetowy.Server.Services.EmailService Pages: 1 -->
<svg width="162pt" height="286pt"
 viewBox="0.00 0.00 162.00 286.00" xmlns="http://www.w3.org/2000/svg" xmlns:xlink="http://www.w3.org/1999/xlink">
<g id="graph0" class="graph" transform="scale(1 1) rotate(0) translate(4 282)">
<title>Sklep_internetowy.Server.Services.EmailService</title>
<!-- Node1 -->
<g id="Node000001" class="node">
<title>Node1</title>
<g id="a_Node000001"><a xlink:title="Serwis odpowiedzialny za wysyłanie wiadomości e&#45;mail.">
<polygon fill="#999999" stroke="none" points="153.75,-80 0,-80 0,0 153.75,0 153.75,-80"/>
<text xml:space="preserve" text-anchor="start" x="19.88" y="-66.5" font-family="Helvetica,sans-Serif" font-size="10.00">Sklep_internetowy.Server.</text>
<text xml:space="preserve" text-anchor="start" x="27.38" y="-54.5" font-family="Helvetica,sans-Serif" font-size="10.00">Services.EmailService</text>
<text xml:space="preserve" text-anchor="start" x="75.38" y="-38.5" font-family="Helvetica,sans-Serif" font-size="10.00"> </text>
<text xml:space="preserve" text-anchor="start" x="4" y="-22.5" font-family="Helvetica,sans-Serif" font-size="10.00">+</text>
<text xml:space="preserve" text-anchor="start" x="14" y="-22.5" font-family="Helvetica,sans-Serif" font-size="10.00">EmailService()</text>
<text xml:space="preserve" text-anchor="start" x="4" y="-6.5" font-family="Helvetica,sans-Serif" font-size="10.00">+</text>
<text xml:space="preserve" text-anchor="start" x="14" y="-6.5" font-family="Helvetica,sans-Serif" font-size="10.00">SendOrderConfirmationAsync()</text>
<polygon fill="#666666" stroke="#666666" points="0,-50 0,-50 153.75,-50 153.75,-50 0,-50"/>
<polygon fill="#666666" stroke="#666666" points="0,-34 0,-34 153.75,-34 153.75,-34 0,-34"/>
<polygon fill="none" stroke="#666666" points="0,0 0,-80 153.75,-80 153.75,0 0,0"/>
</a>
</g>
</g>
<!-- Node2 -->
<g id="Node000002" class="node">
<title>Node2</title>
<g id="a_Node000002"><a xlink:href="class_sklep__internetowy_1_1_server_1_1_models_1_1_mail_settings.html" target="_top" xlink:title="Klasa konfiguracyjna przechowująca parametry serwera poczty elektronicznej (SMTP)....">
<polygon fill="white" stroke="none" points="137.88,-278 15.88,-278 15.88,-134 137.88,-134 137.88,-278"/>
<text xml:space="preserve" text-anchor="start" x="19.88" y="-264.5" font-family="Helvetica,sans-Serif" font-size="10.00">Sklep_internetowy.Server.</text>
<text xml:space="preserve" text-anchor="start" x="32.62" y="-252.5" font-family="Helvetica,sans-Serif" font-size="10.00">Models.MailSettings</text>
<text xml:space="preserve" text-anchor="start" x="33.69" y="-236.5" font-family="Helvetica,sans-Serif" font-size="10.00">+</text>
<text xml:space="preserve" text-anchor="start" x="57.5" y="-236.5" font-family="Helvetica,sans-Serif" font-size="10.00">Host</text>
<text xml:space="preserve" text-anchor="start" x="33.69" y="-220.5" font-family="Helvetica,sans-Serif" font-size="10.00">+</text>
<text xml:space="preserve" text-anchor="start" x="57.5" y="-220.5" font-family="Helvetica,sans-Serif" font-size="10.00">Port</text>
<text xml:space="preserve" text-anchor="start" x="33.69" y="-204.5" font-family="Helvetica,sans-Serif" font-size="10.00">+</text>
<text xml:space="preserve" text-anchor="start" x="57.5" y="-204.5" font-family="Helvetica,sans-Serif" font-size="10.00">Username</text>
<text xml:space="preserve" text-anchor="start" x="33.69" y="-188.5" font-family="Helvetica,sans-Serif" font-size="10.00">+</text>
<text xml:space="preserve" text-anchor="start" x="57.5" y="-188.5" font-family="Helvetica,sans-Serif" font-size="10.00">Password</text>
<text xml:space="preserve" text-anchor="start" x="33.69" y="-172.5" font-family="Helvetica,sans-Serif" font-size="10.00">+</text>
<text xml:space="preserve" text-anchor="start" x="57.5" y="-172.5" font-family="Helvetica,sans-Serif" font-size="10.00">FromEmail</text>
<text xml:space="preserve" text-anchor="start" x="33.69" y="-156.5" font-family="Helvetica,sans-Serif" font-size="10.00">+</text>
<text xml:space="preserve" text-anchor="start" x="57.5" y="-156.5" font-family="Helvetica,sans-Serif" font-size="10.00">FromName</text>
<text xml:space="preserve" text-anchor="start" x="75.38" y="-140.5" font-family="Helvetica,sans-Serif" font-size="10.00"> </text>
<polygon fill="#666666" stroke="#666666" points="15.88,-248 15.88,-248 137.88,-248 137.88,-248 15.88,-248"/>
<polygon fill="#666666" stroke="#666666" points="15.88,-152 15.88,-152 55.5,-152 55.5,-152 15.88,-152"/>
<polygon fill="#666666" stroke="#666666" points="55.5,-152 55.5,-152 137.88,-152 137.88,-152 55.5,-152"/>
<polygon fill="none" stroke="#666666" points="15.88,-134 15.88,-278 137.88,-278 137.88,-134 15.88,-134"/>
</a>
</g>
</g>
<!-- Node2&#45;&gt;Node1 -->
<g id="edge1_Node000001_Node000002" class="edge">
<title>Node2&#45;&gt;Node1</title>
<g id="a_edge1_Node000001_Node000002"><a xlink:title=" ">
<path fill="none" stroke="#63b8ff" d="M76.88,-134.02C76.88,-120 76.88,-105.53 76.88,-92.32"/>
<polygon fill="none" stroke="#63b8ff" points="76.88,-92.48 72.88,-86.48 76.88,-80.48 80.88,-86.48 76.88,-92.48"/>
</a>
</g>
<text xml:space="preserve" text-anchor="start" x="79.88" y="-103.5" font-family="Helvetica,sans-Serif" font-size="10.00" fill="grey">&#45;_mailSettings</text>
</g>
</g>
</svg>
