<?xml version="1.0" encoding="UTF-8" standalone="no"?>
<!DOCTYPE svg PUBLIC "-//W3C//DTD SVG 1.1//EN"
 "http://www.w3.org/Graphics/SVG/1.1/DTD/svg11.dtd">
<!-- Generated by graphviz version 14.1.1 (20251213.1925)
 -->
<!-- Title: Sklep_internetowy.Server.Services.Promotion.PromotionService Pages: 1 -->
<svg width="182pt" height="366pt"
 viewBox="0.00 0.00 182.00 366.00" xmlns="http://www.w3.org/2000/svg" xmlns:xlink="http://www.w3.org/1999/xlink">
<g id="graph0" class="graph" transform="scale(1 1) rotate(0) translate(4 362)">
<title>Sklep_internetowy.Server.Services.Promotion.PromotionService</title>
<!-- Node1 -->
<g id="Node000001" class="node">
<title>Node1</title>
<g id="a_Node000001"><a xlink:title="Serwis biznesowy odpowiedzialny za zaawansowane zarządzanie akcjami promocyjnymi w systemie TechStore...">
<polygon fill="#999999" stroke="none" points="173.75,-112 0,-112 0,0 173.75,0 173.75,-112"/>
<text xml:space="preserve" text-anchor="start" x="4" y="-98.5" font-family="Helvetica,sans-Serif" font-size="10.00">Sklep_internetowy.Server.</text>
<text xml:space="preserve" text-anchor="start" x="4" y="-86.5" font-family="Helvetica,sans-Serif" font-size="10.00">Services.Promotion.PromotionService</text>
<text xml:space="preserve" text-anchor="start" x="85.38" y="-70.5" font-family="Helvetica,sans-Serif" font-size="10.00"> </text>
<text xml:space="preserve" text-anchor="start" x="6" y="-54.5" font-family="Helvetica,sans-Serif" font-size="10.00">+</text>
<text xml:space="preserve" text-anchor="start" x="18" y="-54.5" font-family="Helvetica,sans-Serif" font-size="10.00">PromotionService()</text>
<text xml:space="preserve" text-anchor="start" x="6" y="-38.5" font-family="Helvetica,sans-Serif" font-size="10.00">+</text>
<text xml:space="preserve" text-anchor="start" x="18" y="-38.5" font-family="Helvetica,sans-Serif" font-size="10.00">GetPromotionCandidatesAsync()</text>
<text xml:space="preserve" text-anchor="start" x="6" y="-22.5" font-family="Helvetica,sans-Serif" font-size="10.00">+</text>
<text xml:space="preserve" text-anchor="start" x="18" y="-22.5" font-family="Helvetica,sans-Serif" font-size="10.00">ApplyBulkDiscountsAsync()</text>
<text xml:space="preserve" text-anchor="start" x="6" y="-6.5" font-family="Helvetica,sans-Serif" font-size="10.00">+</text>
<text xml:space="preserve" text-anchor="start" x="18" y="-6.5" font-family="Helvetica,sans-Serif" font-size="10.00">RemoveExpiredDiscountsAsync()</text>
<polygon fill="#666666" stroke="#666666" points="0,-82 0,-82 173.75,-82 173.75,-82 0,-82"/>
<polygon fill="#666666" stroke="#666666" points="0,-66 0,-66 173.75,-66 173.75,-66 0,-66"/>
<polygon fill="none" stroke="#666666" points="0,0 0,-112 173.75,-112 173.75,0 0,0"/>
</a>
</g>
</g>
<!-- Node2 -->
<g id="Node000002" class="node">
<title>Node2</title>
<g id="a_Node000002"><a xlink:href="class_sklep__internetowy_1_1_server_1_1_data_1_1_store_db_context.html" target="_top" xlink:title="Glowny kontekst bazy danych aplikacji TechStore. Klasa dziedziczy po IdentityDbContext,...">
<polygon fill="white" stroke="none" points="147.88,-358 25.88,-358 25.88,-166 147.88,-166 147.88,-358"/>
<text xml:space="preserve" text-anchor="start" x="29.88" y="-344.5" font-family="Helvetica,sans-Serif" font-size="10.00">Sklep_internetowy.Server.</text>
<text xml:space="preserve" text-anchor="start" x="39.62" y="-332.5" font-family="Helvetica,sans-Serif" font-size="10.00">Data.StoreDbContext</text>
<text xml:space="preserve" text-anchor="start" x="35.44" y="-316.5" font-family="Helvetica,sans-Serif" font-size="10.00">+</text>
<text xml:space="preserve" text-anchor="start" x="51" y="-316.5" font-family="Helvetica,sans-Serif" font-size="10.00">Auctions</text>
<text xml:space="preserve" text-anchor="start" x="35.44" y="-300.5" font-family="Helvetica,sans-Serif" font-size="10.00">+</text>
<text xml:space="preserve" text-anchor="start" x="51" y="-300.5" font-family="Helvetica,sans-Serif" font-size="10.00">Bids</text>
<text xml:space="preserve" text-anchor="start" x="35.44" y="-284.5" font-family="Helvetica,sans-Serif" font-size="10.00">+</text>
<text xml:space="preserve" text-anchor="start" x="51" y="-284.5" font-family="Helvetica,sans-Serif" font-size="10.00">Products</text>
<text xml:space="preserve" text-anchor="start" x="35.44" y="-268.5" font-family="Helvetica,sans-Serif" font-size="10.00">+</text>
<text xml:space="preserve" text-anchor="start" x="51" y="-268.5" font-family="Helvetica,sans-Serif" font-size="10.00">Orders</text>
<text xml:space="preserve" text-anchor="start" x="35.44" y="-252.5" font-family="Helvetica,sans-Serif" font-size="10.00">+</text>
<text xml:space="preserve" text-anchor="start" x="51" y="-252.5" font-family="Helvetica,sans-Serif" font-size="10.00">OrderProducts</text>
<text xml:space="preserve" text-anchor="start" x="35.44" y="-236.5" font-family="Helvetica,sans-Serif" font-size="10.00">+</text>
<text xml:space="preserve" text-anchor="start" x="51" y="-236.5" font-family="Helvetica,sans-Serif" font-size="10.00">Messages</text>
<text xml:space="preserve" text-anchor="start" x="35.44" y="-220.5" font-family="Helvetica,sans-Serif" font-size="10.00">+</text>
<text xml:space="preserve" text-anchor="start" x="51" y="-220.5" font-family="Helvetica,sans-Serif" font-size="10.00">ProductCategories</text>
<text xml:space="preserve" text-anchor="start" x="35.44" y="-204.5" font-family="Helvetica,sans-Serif" font-size="10.00">+</text>
<text xml:space="preserve" text-anchor="start" x="51" y="-204.5" font-family="Helvetica,sans-Serif" font-size="10.00">ProductImages</text>
<text xml:space="preserve" text-anchor="start" x="35.44" y="-188.5" font-family="Helvetica,sans-Serif" font-size="10.00">+</text>
<text xml:space="preserve" text-anchor="start" x="51" y="-188.5" font-family="Helvetica,sans-Serif" font-size="10.00">StoreDbContext()</text>
<text xml:space="preserve" text-anchor="start" x="35.81" y="-172.5" font-family="Helvetica,sans-Serif" font-size="10.00">#</text>
<text xml:space="preserve" text-anchor="start" x="51" y="-172.5" font-family="Helvetica,sans-Serif" font-size="10.00">OnModelCreating()</text>
<polygon fill="#666666" stroke="#666666" points="25.88,-328 25.88,-328 147.88,-328 147.88,-328 25.88,-328"/>
<polygon fill="#666666" stroke="#666666" points="25.88,-200 25.88,-200 49,-200 49,-200 25.88,-200"/>
<polygon fill="#666666" stroke="#666666" points="49,-200 49,-200 147.88,-200 147.88,-200 49,-200"/>
<polygon fill="none" stroke="#666666" points="25.88,-166 25.88,-358 147.88,-358 147.88,-166 25.88,-166"/>
</a>
</g>
</g>
<!-- Node2&#45;&gt;Node1 -->
<g id="edge1_Node000001_Node000002" class="edge">
<title>Node2&#45;&gt;Node1</title>
<g id="a_edge1_Node000001_Node000002"><a xlink:title=" ">
<path fill="none" stroke="#63b8ff" d="M86.88,-166.17C86.88,-152.2 86.88,-138.05 86.88,-124.78"/>
<polygon fill="none" stroke="#63b8ff" points="86.88,-124.73 82.88,-118.73 86.88,-112.73 90.88,-118.73 86.88,-124.73"/>
</a>
</g>
<text xml:space="preserve" text-anchor="start" x="89.88" y="-135.5" font-family="Helvetica,sans-Serif" font-size="10.00" fill="grey">&#45;_context</text>
</g>
</g>
</svg>
