<?xml version="1.0" encoding="UTF-8" standalone="no"?>
<!DOCTYPE svg PUBLIC "-//W3C//DTD SVG 1.1//EN"
 "http://www.w3.org/Graphics/SVG/1.1/DTD/svg11.dtd">
<!-- Generated by graphviz version 14.1.1 (20251213.1925)
 -->
<!-- Title: Sklep_internetowy.Server.Controllers.Auth.AuthController Pages: 1 -->
<svg width="270pt" height="580pt"
 viewBox="0.00 0.00 270.00 580.00" xmlns="http://www.w3.org/2000/svg" xmlns:xlink="http://www.w3.org/1999/xlink">
<g id="graph0" class="graph" transform="scale(1 1) rotate(0) translate(4 576)">
<title>Sklep_internetowy.Server.Controllers.Auth.AuthController</title>
<!-- Node1 -->
<g id="Node000001" class="node">
<title>Node1</title>
<g id="a_Node000001"><a xlink:title="Kontroler API odpowiedzialny za procesy uwierzytelniania i autoryzacji uzytkownikow....">
<polygon fill="#999999" stroke="none" points="202.88,-96 59.12,-96 59.12,0 202.88,0 202.88,-96"/>
<text xml:space="preserve" text-anchor="start" x="63.12" y="-82.5" font-family="Helvetica,sans-Serif" font-size="10.00">Sklep_internetowy.Server.</text>
<text xml:space="preserve" text-anchor="start" x="63.12" y="-70.5" font-family="Helvetica,sans-Serif" font-size="10.00">Controllers.Auth.AuthController</text>
<text xml:space="preserve" text-anchor="start" x="129.5" y="-54.5" font-family="Helvetica,sans-Serif" font-size="10.00"> </text>
<text xml:space="preserve" text-anchor="start" x="77.5" y="-38.5" font-family="Helvetica,sans-Serif" font-size="10.00">+</text>
<text xml:space="preserve" text-anchor="start" x="101.88" y="-38.5" font-family="Helvetica,sans-Serif" font-size="10.00">AuthController()</text>
<text xml:space="preserve" text-anchor="start" x="77.5" y="-22.5" font-family="Helvetica,sans-Serif" font-size="10.00">+</text>
<text xml:space="preserve" text-anchor="start" x="101.88" y="-22.5" font-family="Helvetica,sans-Serif" font-size="10.00">Register()</text>
<text xml:space="preserve" text-anchor="start" x="77.5" y="-6.5" font-family="Helvetica,sans-Serif" font-size="10.00">+</text>
<text xml:space="preserve" text-anchor="start" x="101.88" y="-6.5" font-family="Helvetica,sans-Serif" font-size="10.00">Login()</text>
<polygon fill="#666666" stroke="#666666" points="59.12,-66 59.12,-66 202.88,-66 202.88,-66 59.12,-66"/>
<polygon fill="#666666" stroke="#666666" points="59.12,-50 59.12,-50 202.88,-50 202.88,-50 59.12,-50"/>
<polygon fill="none" stroke="#666666" points="59.12,0 59.12,-96 202.88,-96 202.88,0 59.12,0"/>
</a>
</g>
</g>
<!-- Node2 -->
<g id="Node000002" class="node">
<title>Node2</title>
<g id="a_Node000002"><a xlink:href="class_sklep__internetowy_1_1_server_1_1_services_1_1_auth_1_1_account_service.html" target="_top" xlink:title="Serwis odpowiedzialny za obsługę kont użytkowników.">
<polygon fill="white" stroke="none" points="201.75,-326 60.25,-326 60.25,-150 201.75,-150 201.75,-326"/>
<text xml:space="preserve" text-anchor="start" x="64.25" y="-312.5" font-family="Helvetica,sans-Serif" font-size="10.00">Sklep_internetowy.Server.</text>
<text xml:space="preserve" text-anchor="start" x="64.25" y="-300.5" font-family="Helvetica,sans-Serif" font-size="10.00">Services.Auth.AccountService</text>
<text xml:space="preserve" text-anchor="start" x="69.44" y="-284.5" font-family="Helvetica,sans-Serif" font-size="10.00">&#45;</text>
<text xml:space="preserve" text-anchor="start" x="81.62" y="-284.5" font-family="Helvetica,sans-Serif" font-size="10.00">_userManager</text>
<text xml:space="preserve" text-anchor="start" x="69.44" y="-268.5" font-family="Helvetica,sans-Serif" font-size="10.00">&#45;</text>
<text xml:space="preserve" text-anchor="start" x="81.62" y="-268.5" font-family="Helvetica,sans-Serif" font-size="10.00">_roleManager</text>
<text xml:space="preserve" text-anchor="start" x="69.44" y="-252.5" font-family="Helvetica,sans-Serif" font-size="10.00">&#45;</text>
<text xml:space="preserve" text-anchor="start" x="81.62" y="-252.5" font-family="Helvetica,sans-Serif" font-size="10.00">_config</text>
<text xml:space="preserve" text-anchor="start" x="69.44" y="-236.5" font-family="Helvetica,sans-Serif" font-size="10.00">&#45;</text>
<text xml:space="preserve" text-anchor="start" x="81.62" y="-236.5" font-family="Helvetica,sans-Serif" font-size="10.00">_logger</text>
<text xml:space="preserve" text-anchor="start" x="67.94" y="-220.5" font-family="Helvetica,sans-Serif" font-size="10.00">+</text>
<text xml:space="preserve" text-anchor="start" x="81.62" y="-220.5" font-family="Helvetica,sans-Serif" font-size="10.00">AccountService()</text>
<text xml:space="preserve" text-anchor="start" x="67.94" y="-204.5" font-family="Helvetica,sans-Serif" font-size="10.00">+</text>
<text xml:space="preserve" text-anchor="start" x="81.62" y="-204.5" font-family="Helvetica,sans-Serif" font-size="10.00">Register()</text>
<text xml:space="preserve" text-anchor="start" x="67.94" y="-188.5" font-family="Helvetica,sans-Serif" font-size="10.00">+</text>
<text xml:space="preserve" text-anchor="start" x="81.62" y="-188.5" font-family="Helvetica,sans-Serif" font-size="10.00">Login()</text>
<text xml:space="preserve" text-anchor="start" x="67.94" y="-172.5" font-family="Helvetica,sans-Serif" font-size="10.00">+</text>
<text xml:space="preserve" text-anchor="start" x="81.62" y="-172.5" font-family="Helvetica,sans-Serif" font-size="10.00">GetUserByNameAsync()</text>
<text xml:space="preserve" text-anchor="start" x="67.94" y="-156.5" font-family="Helvetica,sans-Serif" font-size="10.00">+</text>
<text xml:space="preserve" text-anchor="start" x="81.62" y="-156.5" font-family="Helvetica,sans-Serif" font-size="10.00">UpdateUserAsync()</text>
<polygon fill="#666666" stroke="#666666" points="60.25,-296 60.25,-296 201.75,-296 201.75,-296 60.25,-296"/>
<polygon fill="#666666" stroke="#666666" points="60.25,-232 60.25,-232 79.62,-232 79.62,-232 60.25,-232"/>
<polygon fill="#666666" stroke="#666666" points="79.62,-232 79.62,-232 201.75,-232 201.75,-232 79.62,-232"/>
<polygon fill="none" stroke="#666666" points="60.25,-150 60.25,-326 201.75,-326 201.75,-150 60.25,-150"/>
</a>
</g>
</g>
<!-- Node2&#45;&gt;Node1 -->
<g id="edge1_Node000001_Node000002" class="edge">
<title>Node2&#45;&gt;Node1</title>
<g id="a_edge1_Node000001_Node000002"><a xlink:title=" ">
<path fill="none" stroke="#63b8ff" d="M131,-150.15C131,-136.16 131,-121.94 131,-108.77"/>
<polygon fill="none" stroke="#63b8ff" points="131,-108.89 127,-102.89 131,-96.89 135,-102.89 131,-108.89"/>
</a>
</g>
<text xml:space="preserve" text-anchor="start" x="134" y="-119.5" font-family="Helvetica,sans-Serif" font-size="10.00" fill="grey">&#45;_accountService</text>
</g>
<!-- Node3 -->
<g id="Node000003" class="node">
<title>Node3</title>
<g id="a_Node000003"><a xlink:href="class_sklep__internetowy_1_1_server_1_1_data_1_1_store_db_context.html" target="_top" xlink:title="Glowny kontekst bazy danych aplikacji TechStore. Klasa dziedziczy po IdentityDbContext,...">
<polygon fill="white" stroke="none" points="122,-572 0,-572 0,-380 122,-380 122,-572"/>
<text xml:space="preserve" text-anchor="start" x="4" y="-558.5" font-family="Helvetica,sans-Serif" font-size="10.00">Sklep_internetowy.Server.</text>
<text xml:space="preserve" text-anchor="start" x="13.75" y="-546.5" font-family="Helvetica,sans-Serif" font-size="10.00">Data.StoreDbContext</text>
<text xml:space="preserve" text-anchor="start" x="9.56" y="-530.5" font-family="Helvetica,sans-Serif" font-size="10.00">+</text>
<text xml:space="preserve" text-anchor="start" x="25.12" y="-530.5" font-family="Helvetica,sans-Serif" font-size="10.00">Auctions</text>
<text xml:space="preserve" text-anchor="start" x="9.56" y="-514.5" font-family="Helvetica,sans-Serif" font-size="10.00">+</text>
<text xml:space="preserve" text-anchor="start" x="25.12" y="-514.5" font-family="Helvetica,sans-Serif" font-size="10.00">Bids</text>
<text xml:space="preserve" text-anchor="start" x="9.56" y="-498.5" font-family="Helvetica,sans-Serif" font-size="10.00">+</text>
<text xml:space="preserve" text-anchor="start" x="25.12" y="-498.5" font-family="Helvetica,sans-Serif" font-size="10.00">Products</text>
<text xml:space="preserve" text-anchor="start" x="9.56" y="-482.5" font-family="Helvetica,sans-Serif" font-size="10.00">+</text>
<text xml:space="preserve" text-anchor="start" x="25.12" y="-482.5" font-family="Helvetica,sans-Serif" font-size="10.00">Orders</text>
<text xml:space="preserve" text-anchor="start" x="9.56" y="-466.5" font-family="Helvetica,sans-Serif" font-size="10.00">+</text>
<text xml:space="preserve" text-anchor="start" x="25.12" y="-466.5" font-family="Helvetica,sans-Serif" font-size="10.00">OrderProducts</text>
<text xml:space="preserve" text-anchor="start" x="9.56" y="-450.5" font-family="Helvetica,sans-Serif" font-size="10.00">+</text>
<text xml:space="preserve" text-anchor="start" x="25.12" y="-450.5" font-family="Helvetica,sans-Serif" font-size="10.00">Messages</text>
<text xml:space="preserve" text-anchor="start" x="9.56" y="-434.5" font-family="Helvetica,sans-Serif" font-size="10.00">+</text>
<text xml:space="preserve" text-anchor="start" x="25.12" y="-434.5" font-family="Helvetica,sans-Serif" font-size="10.00">ProductCategories</text>
<text xml:space="preserve" text-anchor="start" x="9.56" y="-418.5" font-family="Helvetica,sans-Serif" font-size="10.00">+</text>
<text xml:space="preserve" text-anchor="start" x="25.12" y="-418.5" font-family="Helvetica,sans-Serif" font-size="10.00">ProductImages</text>
<text xml:space="preserve" text-anchor="start" x="9.56" y="-402.5" font-family="Helvetica,sans-Serif" font-size="10.00">+</text>
<text xml:space="preserve" text-anchor="start" x="25.12" y="-402.5" font-family="Helvetica,sans-Serif" font-size="10.00">StoreDbContext()</text>
<text xml:space="preserve" text-anchor="start" x="9.94" y="-386.5" font-family="Helvetica,sans-Serif" font-size="10.00">#</text>
<text xml:space="preserve" text-anchor="start" x="25.12" y="-386.5" font-family="Helvetica,sans-Serif" font-size="10.00">OnModelCreating()</text>
<polygon fill="#666666" stroke="#666666" points="0,-542 0,-542 122,-542 122,-542 0,-542"/>
<polygon fill="#666666" stroke="#666666" points="0,-414 0,-414 23.12,-414 23.12,-414 0,-414"/>
<polygon fill="#666666" stroke="#666666" points="23.12,-414 23.12,-414 122,-414 122,-414 23.12,-414"/>
<polygon fill="none" stroke="#666666" points="0,-380 0,-572 122,-572 122,-380 0,-380"/>
</a>
</g>
</g>
<!-- Node3&#45;&gt;Node2 -->
<g id="edge2_Node000002_Node000003" class="edge">
<title>Node3&#45;&gt;Node2</title>
<g id="a_edge2_Node000002_Node000003"><a xlink:title=" ">
<path fill="none" stroke="#63b8ff" d="M89.17,-380.03C93.28,-366.16 97.53,-351.85 101.66,-337.91"/>
<polygon fill="none" stroke="#63b8ff" points="101.6,-338.13 99.47,-331.24 105.01,-326.63 107.14,-333.52 101.6,-338.13"/>
</a>
</g>
<text xml:space="preserve" text-anchor="start" x="101.1" y="-349.5" font-family="Helvetica,sans-Serif" font-size="10.00" fill="grey">&#45;_context</text>
</g>
<!-- Node4 -->
<g id="Node000004" class="node">
<title>Node4</title>
<g id="a_Node000004"><a xlink:href="class_sklep__internetowy_1_1_server_1_1_services_1_1_auth_1_1_jwt_service.html" target="_top" xlink:title="Serwis odpowiedzialny za generowanie tokenów JWT dla użytkowników.">
<polygon fill="white" stroke="none" points="262,-508 140,-508 140,-444 262,-444 262,-508"/>
<text xml:space="preserve" text-anchor="start" x="144" y="-494.5" font-family="Helvetica,sans-Serif" font-size="10.00">Sklep_internetowy.Server.</text>
<text xml:space="preserve" text-anchor="start" x="144.38" y="-482.5" font-family="Helvetica,sans-Serif" font-size="10.00">Services.Auth.JwtService</text>
<text xml:space="preserve" text-anchor="start" x="199.5" y="-466.5" font-family="Helvetica,sans-Serif" font-size="10.00"> </text>
<text xml:space="preserve" text-anchor="start" x="152" y="-450.5" font-family="Helvetica,sans-Serif" font-size="10.00">+</text>
<text xml:space="preserve" text-anchor="start" x="170" y="-450.5" font-family="Helvetica,sans-Serif" font-size="10.00">GenerateToken()</text>
<polygon fill="#666666" stroke="#666666" points="140,-478 140,-478 262,-478 262,-478 140,-478"/>
<polygon fill="#666666" stroke="#666666" points="140,-462 140,-462 262,-462 262,-462 140,-462"/>
<polygon fill="none" stroke="#666666" points="140,-444 140,-508 262,-508 262,-444 140,-444"/>
</a>
</g>
</g>
<!-- Node4&#45;&gt;Node2 -->
<g id="edge3_Node000002_Node000004" class="edge">
<title>Node4&#45;&gt;Node2</title>
<g id="a_edge3_Node000002_Node000004"><a xlink:title=" ">
<path fill="none" stroke="#63b8ff" d="M191.85,-444.15C183.82,-417.09 171.7,-376.22 160.38,-338.06"/>
<polygon fill="none" stroke="#63b8ff" points="160.41,-338.16 154.87,-333.54 157,-326.65 162.54,-331.27 160.41,-338.16"/>
</a>
</g>
<text xml:space="preserve" text-anchor="start" x="169" y="-349.5" font-family="Helvetica,sans-Serif" font-size="10.00" fill="grey">&#45;_jwtService</text>
</g>
</g>
</svg>
