<?xml version="1.0" encoding="UTF-8" standalone="no"?>
<!DOCTYPE svg PUBLIC "-//W3C//DTD SVG 1.1//EN"
 "http://www.w3.org/Graphics/SVG/1.1/DTD/svg11.dtd">
<!-- Generated by graphviz version 14.1.1 (20251213.1925)
 -->
<!-- Title: Sklep_internetowy.Server.Controllers.Shop.ProductController Pages: 1 -->
<svg width="168pt" height="350pt"
 viewBox="0.00 0.00 168.00 350.00" xmlns="http://www.w3.org/2000/svg" xmlns:xlink="http://www.w3.org/1999/xlink">
<g id="graph0" class="graph" transform="scale(1 1) rotate(0) translate(4 346)">
<title>Sklep_internetowy.Server.Controllers.Shop.ProductController</title>
<!-- Node1 -->
<g id="Node000001" class="node">
<title>Node1</title>
<g id="a_Node000001"><a xlink:title="Kontroler API odpowiedzialny za dostarczanie danych o produktach dla czesci sklepowej (ogolnodostepne...">
<polygon fill="#999999" stroke="none" points="159.5,-96 0,-96 0,0 159.5,0 159.5,-96"/>
<text xml:space="preserve" text-anchor="start" x="4" y="-82.5" font-family="Helvetica,sans-Serif" font-size="10.00">Sklep_internetowy.Server.</text>
<text xml:space="preserve" text-anchor="start" x="4" y="-70.5" font-family="Helvetica,sans-Serif" font-size="10.00">Controllers.Shop.ProductController</text>
<text xml:space="preserve" text-anchor="start" x="78.25" y="-54.5" font-family="Helvetica,sans-Serif" font-size="10.00"> </text>
<text xml:space="preserve" text-anchor="start" x="18.94" y="-38.5" font-family="Helvetica,sans-Serif" font-size="10.00">+</text>
<text xml:space="preserve" text-anchor="start" x="43.88" y="-38.5" font-family="Helvetica,sans-Serif" font-size="10.00">ProductController()</text>
<text xml:space="preserve" text-anchor="start" x="18.94" y="-22.5" font-family="Helvetica,sans-Serif" font-size="10.00">+</text>
<text xml:space="preserve" text-anchor="start" x="43.88" y="-22.5" font-family="Helvetica,sans-Serif" font-size="10.00">GetProducts()</text>
<text xml:space="preserve" text-anchor="start" x="18.94" y="-6.5" font-family="Helvetica,sans-Serif" font-size="10.00">+</text>
<text xml:space="preserve" text-anchor="start" x="43.88" y="-6.5" font-family="Helvetica,sans-Serif" font-size="10.00">GetProduct()</text>
<polygon fill="#666666" stroke="#666666" points="0,-66 0,-66 159.5,-66 159.5,-66 0,-66"/>
<polygon fill="#666666" stroke="#666666" points="0,-50 0,-50 159.5,-50 159.5,-50 0,-50"/>
<polygon fill="none" stroke="#666666" points="0,0 0,-96 159.5,-96 159.5,0 0,0"/>
</a>
</g>
</g>
<!-- Node2 -->
<g id="Node000002" class="node">
<title>Node2</title>
<g id="a_Node000002"><a xlink:href="class_sklep__internetowy_1_1_server_1_1_data_1_1_store_db_context.html" target="_top" xlink:title="Glowny kontekst bazy danych aplikacji TechStore. Klasa dziedziczy po IdentityDbContext,...">
<polygon fill="white" stroke="none" points="140.75,-342 18.75,-342 18.75,-150 140.75,-150 140.75,-342"/>
<text xml:space="preserve" text-anchor="start" x="22.75" y="-328.5" font-family="Helvetica,sans-Serif" font-size="10.00">Sklep_internetowy.Server.</text>
<text xml:space="preserve" text-anchor="start" x="32.5" y="-316.5" font-family="Helvetica,sans-Serif" font-size="10.00">Data.StoreDbContext</text>
<text xml:space="preserve" text-anchor="start" x="28.31" y="-300.5" font-family="Helvetica,sans-Serif" font-size="10.00">+</text>
<text xml:space="preserve" text-anchor="start" x="43.88" y="-300.5" font-family="Helvetica,sans-Serif" font-size="10.00">Auctions</text>
<text xml:space="preserve" text-anchor="start" x="28.31" y="-284.5" font-family="Helvetica,sans-Serif" font-size="10.00">+</text>
<text xml:space="preserve" text-anchor="start" x="43.88" y="-284.5" font-family="Helvetica,sans-Serif" font-size="10.00">Bids</text>
<text xml:space="preserve" text-anchor="start" x="28.31" y="-268.5" font-family="Helvetica,sans-Serif" font-size="10.00">+</text>
<text xml:space="preserve" text-anchor="start" x="43.88" y="-268.5" font-family="Helvetica,sans-Serif" font-size="10.00">Products</text>
<text xml:space="preserve" text-anchor="start" x="28.31" y="-252.5" font-family="Helvetica,sans-Serif" font-size="10.00">+</text>
<text xml:space="preserve" text-anchor="start" x="43.88" y="-252.5" font-family="Helvetica,sans-Serif" font-size="10.00">Orders</text>
<text xml:space="preserve" text-anchor="start" x="28.31" y="-236.5" font-family="Helvetica,sans-Serif" font-size="10.00">+</text>
<text xml:space="preserve" text-anchor="start" x="43.88" y="-236.5" font-family="Helvetica,sans-Serif" font-size="10.00">OrderProducts</text>
<text xml:space="preserve" text-anchor="start" x="28.31" y="-220.5" font-family="Helvetica,sans-Serif" font-size="10.00">+</text>
<text xml:space="preserve" text-anchor="start" x="43.88" y="-220.5" font-family="Helvetica,sans-Serif" font-size="10.00">Messages</text>
<text xml:space="preserve" text-anchor="start" x="28.31" y="-204.5" font-family="Helvetica,sans-Serif" font-size="10.00">+</text>
<text xml:space="preserve" text-anchor="start" x="43.88" y="-204.5" font-family="Helvetica,sans-Serif" font-size="10.00">ProductCategories</text>
<text xml:space="preserve" text-anchor="start" x="28.31" y="-188.5" font-family="Helvetica,sans-Serif" font-size="10.00">+</text>
<text xml:space="preserve" text-anchor="start" x="43.88" y="-188.5" font-family="Helvetica,sans-Serif" font-size="10.00">ProductImages</text>
<text xml:space="preserve" text-anchor="start" x="28.31" y="-172.5" font-family="Helvetica,sans-Serif" font-size="10.00">+</text>
<text xml:space="preserve" text-anchor="start" x="43.88" y="-172.5" font-family="Helvetica,sans-Serif" font-size="10.00">StoreDbContext()</text>
<text xml:space="preserve" text-anchor="start" x="28.69" y="-156.5" font-family="Helvetica,sans-Serif" font-size="10.00">#</text>
<text xml:space="preserve" text-anchor="start" x="43.88" y="-156.5" font-family="Helvetica,sans-Serif" font-size="10.00">OnModelCreating()</text>
<polygon fill="#666666" stroke="#666666" points="18.75,-312 18.75,-312 140.75,-312 140.75,-312 18.75,-312"/>
<polygon fill="#666666" stroke="#666666" points="18.75,-184 18.75,-184 41.88,-184 41.88,-184 18.75,-184"/>
<polygon fill="#666666" stroke="#666666" points="41.88,-184 41.88,-184 140.75,-184 140.75,-184 41.88,-184"/>
<polygon fill="none" stroke="#666666" points="18.75,-150 18.75,-342 140.75,-342 140.75,-150 18.75,-150"/>
</a>
</g>
</g>
<!-- Node2&#45;&gt;Node1 -->
<g id="edge1_Node000001_Node000002" class="edge">
<title>Node2&#45;&gt;Node1</title>
<g id="a_edge1_Node000001_Node000002"><a xlink:title=" ">
<path fill="none" stroke="#63b8ff" d="M79.75,-150.16C79.75,-136.01 79.75,-121.78 79.75,-108.64"/>
<polygon fill="none" stroke="#63b8ff" points="79.75,-108.81 75.75,-102.81 79.75,-96.81 83.75,-102.81 79.75,-108.81"/>
</a>
</g>
<text xml:space="preserve" text-anchor="start" x="82.75" y="-119.5" font-family="Helvetica,sans-Serif" font-size="10.00" fill="grey">&#45;_context</text>
</g>
</g>
</svg>
