<?xml version="1.0" encoding="UTF-8" standalone="no"?>
<!DOCTYPE svg PUBLIC "-//W3C//DTD SVG 1.1//EN"
 "http://www.w3.org/Graphics/SVG/1.1/DTD/svg11.dtd">
<!-- Generated by graphviz version 14.1.1 (20251213.1925)
 -->
<!-- Title: Sklep_internetowy.Server.Services.Auth.AuthSettings Pages: 1 -->
<svg width="137pt" height="88pt"
 viewBox="0.00 0.00 137.00 88.00" xmlns="http://www.w3.org/2000/svg" xmlns:xlink="http://www.w3.org/1999/xlink">
<g id="graph0" class="graph" transform="scale(1 1) rotate(0) translate(4 84)">
<title>Sklep_internetowy.Server.Services.Auth.AuthSettings</title>
<!-- Node1 -->
<g id="Node000001" class="node">
<title>Node1</title>
<g id="a_Node000001"><a xlink:title="Klasa przechowująca ustawienia uwierzytelniania JWT.">
<polygon fill="#999999" stroke="none" points="128.75,-80 0,-80 0,0 128.75,0 128.75,-80"/>
<text xml:space="preserve" text-anchor="start" x="4" y="-66.5" font-family="Helvetica,sans-Serif" font-size="10.00">Sklep_internetowy.Server.</text>
<text xml:space="preserve" text-anchor="start" x="4" y="-54.5" font-family="Helvetica,sans-Serif" font-size="10.00">Services.Auth.AuthSettings</text>
<text xml:space="preserve" text-anchor="start" x="20.25" y="-38.5" font-family="Helvetica,sans-Serif" font-size="10.00">+</text>
<text xml:space="preserve" text-anchor="start" x="46.5" y="-38.5" font-family="Helvetica,sans-Serif" font-size="10.00">Expires</text>
<text xml:space="preserve" text-anchor="start" x="20.25" y="-22.5" font-family="Helvetica,sans-Serif" font-size="10.00">+</text>
<text xml:space="preserve" text-anchor="start" x="46.5" y="-22.5" font-family="Helvetica,sans-Serif" font-size="10.00">SecretKey</text>
<text xml:space="preserve" text-anchor="start" x="62.88" y="-6.5" font-family="Helvetica,sans-Serif" font-size="10.00"> </text>
<polygon fill="#666666" stroke="#666666" points="0,-50 0,-50 128.75,-50 128.75,-50 0,-50"/>
<polygon fill="#666666" stroke="#666666" points="0,-18 0,-18 44.5,-18 44.5,-18 0,-18"/>
<polygon fill="#666666" stroke="#666666" points="44.5,-18 44.5,-18 128.75,-18 128.75,-18 44.5,-18"/>
<polygon fill="none" stroke="#666666" points="0,0 0,-80 128.75,-80 128.75,0 0,0"/>
</a>
</g>
</g>
</g>
</svg>
