<?xml version="1.0" encoding="UTF-8" standalone="no"?>
<!DOCTYPE svg PUBLIC "-//W3C//DTD SVG 1.1//EN"
 "http://www.w3.org/Graphics/SVG/1.1/DTD/svg11.dtd">
<!-- Generated by graphviz version 14.1.1 (20251213.1925)
 -->
<!-- Title: Sklep_internetowy.Server.DTOs.LoginRequest Pages: 1 -->
<svg width="130pt" height="88pt"
 viewBox="0.00 0.00 130.00 88.00" xmlns="http://www.w3.org/2000/svg" xmlns:xlink="http://www.w3.org/1999/xlink">
<g id="graph0" class="graph" transform="scale(1 1) rotate(0) translate(4 84)">
<title>Sklep_internetowy.Server.DTOs.LoginRequest</title>
<!-- Node1 -->
<g id="Node000001" class="node">
<title>Node1</title>
<g id="a_Node000001"><a xlink:title="Obiekt transferu danych (DTO) wykorzystywany podczas procesu uwierzytelniania użytkownika....">
<polygon fill="#999999" stroke="none" points="122,-80 0,-80 0,0 122,0 122,-80"/>
<text xml:space="preserve" text-anchor="start" x="4" y="-66.5" font-family="Helvetica,sans-Serif" font-size="10.00">Sklep_internetowy.Server.</text>
<text xml:space="preserve" text-anchor="start" x="16.38" y="-54.5" font-family="Helvetica,sans-Serif" font-size="10.00">DTOs.LoginRequest</text>
<text xml:space="preserve" text-anchor="start" x="18.19" y="-38.5" font-family="Helvetica,sans-Serif" font-size="10.00">+</text>
<text xml:space="preserve" text-anchor="start" x="42.38" y="-38.5" font-family="Helvetica,sans-Serif" font-size="10.00">UserName</text>
<text xml:space="preserve" text-anchor="start" x="18.19" y="-22.5" font-family="Helvetica,sans-Serif" font-size="10.00">+</text>
<text xml:space="preserve" text-anchor="start" x="42.38" y="-22.5" font-family="Helvetica,sans-Serif" font-size="10.00">Password</text>
<text xml:space="preserve" text-anchor="start" x="59.5" y="-6.5" font-family="Helvetica,sans-Serif" font-size="10.00"> </text>
<polygon fill="#666666" stroke="#666666" points="0,-50 0,-50 122,-50 122,-50 0,-50"/>
<polygon fill="#666666" stroke="#666666" points="0,-18 0,-18 40.38,-18 40.38,-18 0,-18"/>
<polygon fill="#666666" stroke="#666666" points="40.38,-18 40.38,-18 122,-18 122,-18 40.38,-18"/>
<polygon fill="none" stroke="#666666" points="0,0 0,-80 122,-80 122,0 0,0"/>
</a>
</g>
</g>
</g>
</svg>
