<?xml version="1.0" encoding="UTF-8" standalone="no"?>
<!DOCTYPE svg PUBLIC "-//W3C//DTD SVG 1.1//EN"
 "http://www.w3.org/Graphics/SVG/1.1/DTD/svg11.dtd">
<!-- Generated by graphviz version 14.1.1 (20251213.1925)
 -->
<!-- Title: OrdersController Pages: 1 -->
<svg width="302pt" height="584pt"
 viewBox="0.00 0.00 302.00 584.00" xmlns="http://www.w3.org/2000/svg" xmlns:xlink="http://www.w3.org/1999/xlink">
<g id="graph0" class="graph" transform="scale(1 1) rotate(0) translate(4 580)">
<title>OrdersController</title>
<!-- Node1 -->
<g id="Node000001" class="node">
<title>Node1</title>
<g id="a_Node000001"><a xlink:title="Kontroler API odpowiedzialny za zarzadzanie zamowieniami w systemie. Obsluguje procesy przegladania z...">
<polygon fill="#999999" stroke="none" points="143.62,-132 48.38,-132 48.38,0 143.62,0 143.62,-132"/>
<text xml:space="preserve" text-anchor="start" x="60.38" y="-118.5" font-family="Helvetica,sans-Serif" font-size="10.00">OrdersController</text>
<text xml:space="preserve" text-anchor="start" x="94.5" y="-102.5" font-family="Helvetica,sans-Serif" font-size="10.00"> </text>
<text xml:space="preserve" text-anchor="start" x="52.38" y="-86.5" font-family="Helvetica,sans-Serif" font-size="10.00">+</text>
<text xml:space="preserve" text-anchor="start" x="62.38" y="-86.5" font-family="Helvetica,sans-Serif" font-size="10.00">OrdersController()</text>
<text xml:space="preserve" text-anchor="start" x="52.38" y="-70.5" font-family="Helvetica,sans-Serif" font-size="10.00">+</text>
<text xml:space="preserve" text-anchor="start" x="62.38" y="-70.5" font-family="Helvetica,sans-Serif" font-size="10.00">GetOrders()</text>
<text xml:space="preserve" text-anchor="start" x="52.38" y="-54.5" font-family="Helvetica,sans-Serif" font-size="10.00">+</text>
<text xml:space="preserve" text-anchor="start" x="62.38" y="-54.5" font-family="Helvetica,sans-Serif" font-size="10.00">GetUserOrders()</text>
<text xml:space="preserve" text-anchor="start" x="52.38" y="-38.5" font-family="Helvetica,sans-Serif" font-size="10.00">+</text>
<text xml:space="preserve" text-anchor="start" x="62.38" y="-38.5" font-family="Helvetica,sans-Serif" font-size="10.00">UpdateOrder()</text>
<text xml:space="preserve" text-anchor="start" x="52.38" y="-22.5" font-family="Helvetica,sans-Serif" font-size="10.00">+</text>
<text xml:space="preserve" text-anchor="start" x="62.38" y="-22.5" font-family="Helvetica,sans-Serif" font-size="10.00">DeleteOrder()</text>
<text xml:space="preserve" text-anchor="start" x="52.38" y="-6.5" font-family="Helvetica,sans-Serif" font-size="10.00">+</text>
<text xml:space="preserve" text-anchor="start" x="62.38" y="-6.5" font-family="Helvetica,sans-Serif" font-size="10.00">CreateOrder()</text>
<polygon fill="#666666" stroke="#666666" points="48.38,-114 48.38,-114 143.62,-114 143.62,-114 48.38,-114"/>
<polygon fill="#666666" stroke="#666666" points="48.38,-98 48.38,-98 143.62,-98 143.62,-98 48.38,-98"/>
<polygon fill="none" stroke="#666666" points="48.38,0 48.38,-132 143.62,-132 143.62,0 48.38,0"/>
</a>
</g>
</g>
<!-- Node2 -->
<g id="Node000002" class="node">
<title>Node2</title>
<g id="a_Node000002"><a xlink:href="class_sklep__internetowy_1_1_server_1_1_data_1_1_store_db_context.html" target="_top" xlink:title="Glowny kontekst bazy danych aplikacji TechStore. Klasa dziedziczy po IdentityDbContext,...">
<polygon fill="white" stroke="none" points="122,-378 0,-378 0,-186 122,-186 122,-378"/>
<text xml:space="preserve" text-anchor="start" x="4" y="-364.5" font-family="Helvetica,sans-Serif" font-size="10.00">Sklep_internetowy.Server.</text>
<text xml:space="preserve" text-anchor="start" x="13.75" y="-352.5" font-family="Helvetica,sans-Serif" font-size="10.00">Data.StoreDbContext</text>
<text xml:space="preserve" text-anchor="start" x="9.56" y="-336.5" font-family="Helvetica,sans-Serif" font-size="10.00">+</text>
<text xml:space="preserve" text-anchor="start" x="25.12" y="-336.5" font-family="Helvetica,sans-Serif" font-size="10.00">Auctions</text>
<text xml:space="preserve" text-anchor="start" x="9.56" y="-320.5" font-family="Helvetica,sans-Serif" font-size="10.00">+</text>
<text xml:space="preserve" text-anchor="start" x="25.12" y="-320.5" font-family="Helvetica,sans-Serif" font-size="10.00">Bids</text>
<text xml:space="preserve" text-anchor="start" x="9.56" y="-304.5" font-family="Helvetica,sans-Serif" font-size="10.00">+</text>
<text xml:space="preserve" text-anchor="start" x="25.12" y="-304.5" font-family="Helvetica,sans-Serif" font-size="10.00">Products</text>
<text xml:space="preserve" text-anchor="start" x="9.56" y="-288.5" font-family="Helvetica,sans-Serif" font-size="10.00">+</text>
<text xml:space="preserve" text-anchor="start" x="25.12" y="-288.5" font-family="Helvetica,sans-Serif" font-size="10.00">Orders</text>
<text xml:space="preserve" text-anchor="start" x="9.56" y="-272.5" font-family="Helvetica,sans-Serif" font-size="10.00">+</text>
<text xml:space="preserve" text-anchor="start" x="25.12" y="-272.5" font-family="Helvetica,sans-Serif" font-size="10.00">OrderProducts</text>
<text xml:space="preserve" text-anchor="start" x="9.56" y="-256.5" font-family="Helvetica,sans-Serif" font-size="10.00">+</text>
<text xml:space="preserve" text-anchor="start" x="25.12" y="-256.5" font-family="Helvetica,sans-Serif" font-size="10.00">Messages</text>
<text xml:space="preserve" text-anchor="start" x="9.56" y="-240.5" font-family="Helvetica,sans-Serif" font-size="10.00">+</text>
<text xml:space="preserve" text-anchor="start" x="25.12" y="-240.5" font-family="Helvetica,sans-Serif" font-size="10.00">ProductCategories</text>
<text xml:space="preserve" text-anchor="start" x="9.56" y="-224.5" font-family="Helvetica,sans-Serif" font-size="10.00">+</text>
<text xml:space="preserve" text-anchor="start" x="25.12" y="-224.5" font-family="Helvetica,sans-Serif" font-size="10.00">ProductImages</text>
<text xml:space="preserve" text-anchor="start" x="9.56" y="-208.5" font-family="Helvetica,sans-Serif" font-size="10.00">+</text>
<text xml:space="preserve" text-anchor="start" x="25.12" y="-208.5" font-family="Helvetica,sans-Serif" font-size="10.00">StoreDbContext()</text>
<text xml:space="preserve" text-anchor="start" x="9.94" y="-192.5" font-family="Helvetica,sans-Serif" font-size="10.00">#</text>
<text xml:space="preserve" text-anchor="start" x="25.12" y="-192.5" font-family="Helvetica,sans-Serif" font-size="10.00">OnModelCreating()</text>
<polygon fill="#666666" stroke="#666666" points="0,-348 0,-348 122,-348 122,-348 0,-348"/>
<polygon fill="#666666" stroke="#666666" points="0,-220 0,-220 23.12,-220 23.12,-220 0,-220"/>
<polygon fill="#666666" stroke="#666666" points="23.12,-220 23.12,-220 122,-220 122,-220 23.12,-220"/>
<polygon fill="none" stroke="#666666" points="0,-186 0,-378 122,-378 122,-186 0,-186"/>
</a>
</g>
</g>
<!-- Node2&#45;&gt;Node1 -->
<g id="edge1_Node000001_Node000002" class="edge">
<title>Node2&#45;&gt;Node1</title>
<g id="a_edge1_Node000001_Node000002"><a xlink:title=" ">
<path fill="none" stroke="#63b8ff" d="M76.5,-186.2C78.78,-172.31 81.09,-158.13 83.3,-144.64"/>
<polygon fill="none" stroke="#63b8ff" points="83.3,-144.67 80.32,-138.1 85.23,-132.83 88.21,-139.39 83.3,-144.67"/>
</a>
</g>
<text xml:space="preserve" text-anchor="start" x="84.63" y="-155.5" font-family="Helvetica,sans-Serif" font-size="10.00" fill="grey">&#45;_context</text>
</g>
<!-- Node3 -->
<g id="Node000003" class="node">
<title>Node3</title>
<g id="a_Node000003"><a xlink:href="class_sklep__internetowy_1_1_server_1_1_services_1_1_email_service.html" target="_top" xlink:title="Serwis odpowiedzialny za wysyłanie wiadomości e&#45;mail.">
<polygon fill="white" stroke="none" points="293.88,-322 140.12,-322 140.12,-242 293.88,-242 293.88,-322"/>
<text xml:space="preserve" text-anchor="start" x="160" y="-308.5" font-family="Helvetica,sans-Serif" font-size="10.00">Sklep_internetowy.Server.</text>
<text xml:space="preserve" text-anchor="start" x="167.5" y="-296.5" font-family="Helvetica,sans-Serif" font-size="10.00">Services.EmailService</text>
<text xml:space="preserve" text-anchor="start" x="215.5" y="-280.5" font-family="Helvetica,sans-Serif" font-size="10.00"> </text>
<text xml:space="preserve" text-anchor="start" x="144.12" y="-264.5" font-family="Helvetica,sans-Serif" font-size="10.00">+</text>
<text xml:space="preserve" text-anchor="start" x="154.12" y="-264.5" font-family="Helvetica,sans-Serif" font-size="10.00">EmailService()</text>
<text xml:space="preserve" text-anchor="start" x="144.12" y="-248.5" font-family="Helvetica,sans-Serif" font-size="10.00">+</text>
<text xml:space="preserve" text-anchor="start" x="154.12" y="-248.5" font-family="Helvetica,sans-Serif" font-size="10.00">SendOrderConfirmationAsync()</text>
<polygon fill="#666666" stroke="#666666" points="140.12,-292 140.12,-292 293.88,-292 293.88,-292 140.12,-292"/>
<polygon fill="#666666" stroke="#666666" points="140.12,-276 140.12,-276 293.88,-276 293.88,-276 140.12,-276"/>
<polygon fill="none" stroke="#666666" points="140.12,-242 140.12,-322 293.88,-322 293.88,-242 140.12,-242"/>
</a>
</g>
</g>
<!-- Node3&#45;&gt;Node1 -->
<g id="edge2_Node000001_Node000003" class="edge">
<title>Node3&#45;&gt;Node1</title>
<g id="a_edge2_Node000001_Node000003"><a xlink:title=" ">
<path fill="none" stroke="#63b8ff" d="M195.09,-242.25C179.49,-214.65 158.01,-176.66 139.03,-143.11"/>
<polygon fill="none" stroke="#63b8ff" points="139.06,-143.15 132.62,-139.9 133.15,-132.71 139.59,-135.96 139.06,-143.15"/>
</a>
</g>
<text xml:space="preserve" text-anchor="start" x="155.87" y="-155.5" font-family="Helvetica,sans-Serif" font-size="10.00" fill="grey">&#45;_emailService</text>
</g>
<!-- Node4 -->
<g id="Node000004" class="node">
<title>Node4</title>
<g id="a_Node000004"><a xlink:href="class_sklep__internetowy_1_1_server_1_1_models_1_1_mail_settings.html" target="_top" xlink:title="Klasa konfiguracyjna przechowująca parametry serwera poczty elektronicznej (SMTP)....">
<polygon fill="white" stroke="none" points="278,-576 156,-576 156,-432 278,-432 278,-576"/>
<text xml:space="preserve" text-anchor="start" x="160" y="-562.5" font-family="Helvetica,sans-Serif" font-size="10.00">Sklep_internetowy.Server.</text>
<text xml:space="preserve" text-anchor="start" x="172.75" y="-550.5" font-family="Helvetica,sans-Serif" font-size="10.00">Models.MailSettings</text>
<text xml:space="preserve" text-anchor="start" x="173.81" y="-534.5" font-family="Helvetica,sans-Serif" font-size="10.00">+</text>
<text xml:space="preserve" text-anchor="start" x="197.62" y="-534.5" font-family="Helvetica,sans-Serif" font-size="10.00">Host</text>
<text xml:space="preserve" text-anchor="start" x="173.81" y="-518.5" font-family="Helvetica,sans-Serif" font-size="10.00">+</text>
<text xml:space="preserve" text-anchor="start" x="197.62" y="-518.5" font-family="Helvetica,sans-Serif" font-size="10.00">Port</text>
<text xml:space="preserve" text-anchor="start" x="173.81" y="-502.5" font-family="Helvetica,sans-Serif" font-size="10.00">+</text>
<text xml:space="preserve" text-anchor="start" x="197.62" y="-502.5" font-family="Helvetica,sans-Serif" font-size="10.00">Username</text>
<text xml:space="preserve" text-anchor="start" x="173.81" y="-486.5" font-family="Helvetica,sans-Serif" font-size="10.00">+</text>
<text xml:space="preserve" text-anchor="start" x="197.62" y="-486.5" font-family="Helvetica,sans-Serif" font-size="10.00">Password</text>
<text xml:space="preserve" text-anchor="start" x="173.81" y="-470.5" font-family="Helvetica,sans-Serif" font-size="10.00">+</text>
<text xml:space="preserve" text-anchor="start" x="197.62" y="-470.5" font-family="Helvetica,sans-Serif" font-size="10.00">FromEmail</text>
<text xml:space="preserve" text-anchor="start" x="173.81" y="-454.5" font-family="Helvetica,sans-Serif" font-size="10.00">+</text>
<text xml:space="preserve" text-anchor="start" x="197.62" y="-454.5" font-family="Helvetica,sans-Serif" font-size="10.00">FromName</text>
<text xml:space="preserve" text-anchor="start" x="215.5" y="-438.5" font-family="Helvetica,sans-Serif" font-size="10.00"> </text>
<polygon fill="#666666" stroke="#666666" points="156,-546 156,-546 278,-546 278,-546 156,-546"/>
<polygon fill="#666666" stroke="#666666" points="156,-450 156,-450 195.62,-450 195.62,-450 156,-450"/>
<polygon fill="#666666" stroke="#666666" points="195.62,-450 195.62,-450 278,-450 278,-450 195.62,-450"/>
<polygon fill="none" stroke="#666666" points="156,-432 156,-576 278,-576 278,-432 156,-432"/>
</a>
</g>
</g>
<!-- Node4&#45;&gt;Node3 -->
<g id="edge3_Node000003_Node000004" class="edge">
<title>Node4&#45;&gt;Node3</title>
<g id="a_edge3_Node000003_Node000004"><a xlink:title=" ">
<path fill="none" stroke="#63b8ff" d="M217,-432.18C217,-400.48 217,-363.79 217,-334.73"/>
<polygon fill="none" stroke="#63b8ff" points="217,-334.86 213,-328.86 217,-322.86 221,-328.86 217,-334.86"/>
</a>
</g>
<text xml:space="preserve" text-anchor="start" x="220" y="-401.5" font-family="Helvetica,sans-Serif" font-size="10.00" fill="grey">&#45;_mailSettings</text>
</g>
</g>
</svg>
