<?xml version="1.0" encoding="UTF-8" standalone="no"?>
<!DOCTYPE svg PUBLIC "-//W3C//DTD SVG 1.1//EN"
 "http://www.w3.org/Graphics/SVG/1.1/DTD/svg11.dtd">
<!-- Generated by graphviz version 14.1.1 (20251213.1925)
 -->
<!-- Title: Sklep_internetowy.Server.Controllers.Admin.PromotionController Pages: 1 -->
<svg width="186pt" height="532pt"
 viewBox="0.00 0.00 186.00 532.00" xmlns="http://www.w3.org/2000/svg" xmlns:xlink="http://www.w3.org/1999/xlink">
<g id="graph0" class="graph" transform="scale(1 1) rotate(0) translate(4 528)">
<title>Sklep_internetowy.Server.Controllers.Admin.PromotionController</title>
<!-- Node1 -->
<g id="Node000001" class="node">
<title>Node1</title>
<g id="a_Node000001"><a xlink:title="Kontroler administracyjny odpowiedzialny za zarzadzanie kampaniami promocyjnymi. Umozliwia identyfika...">
<polygon fill="#999999" stroke="none" points="175.25,-112 0,-112 0,0 175.25,0 175.25,-112"/>
<text xml:space="preserve" text-anchor="start" x="4" y="-98.5" font-family="Helvetica,sans-Serif" font-size="10.00">Sklep_internetowy.Server.</text>
<text xml:space="preserve" text-anchor="start" x="4" y="-86.5" font-family="Helvetica,sans-Serif" font-size="10.00">Controllers.Admin.PromotionController</text>
<text xml:space="preserve" text-anchor="start" x="86.12" y="-70.5" font-family="Helvetica,sans-Serif" font-size="10.00"> </text>
<text xml:space="preserve" text-anchor="start" x="13.31" y="-54.5" font-family="Helvetica,sans-Serif" font-size="10.00">+</text>
<text xml:space="preserve" text-anchor="start" x="32.62" y="-54.5" font-family="Helvetica,sans-Serif" font-size="10.00">PromotionController()</text>
<text xml:space="preserve" text-anchor="start" x="13.31" y="-38.5" font-family="Helvetica,sans-Serif" font-size="10.00">+</text>
<text xml:space="preserve" text-anchor="start" x="32.62" y="-38.5" font-family="Helvetica,sans-Serif" font-size="10.00">GetCandidates()</text>
<text xml:space="preserve" text-anchor="start" x="13.31" y="-22.5" font-family="Helvetica,sans-Serif" font-size="10.00">+</text>
<text xml:space="preserve" text-anchor="start" x="32.62" y="-22.5" font-family="Helvetica,sans-Serif" font-size="10.00">ApplyToSelected()</text>
<text xml:space="preserve" text-anchor="start" x="13.31" y="-6.5" font-family="Helvetica,sans-Serif" font-size="10.00">+</text>
<text xml:space="preserve" text-anchor="start" x="32.62" y="-6.5" font-family="Helvetica,sans-Serif" font-size="10.00">RemoveExpiredDiscounts()</text>
<polygon fill="#666666" stroke="#666666" points="0,-82 0,-82 175.25,-82 175.25,-82 0,-82"/>
<polygon fill="#666666" stroke="#666666" points="0,-66 0,-66 175.25,-66 175.25,-66 0,-66"/>
<polygon fill="none" stroke="#666666" points="0,0 0,-112 175.25,-112 175.25,0 0,0"/>
</a>
</g>
</g>
<!-- Node2 -->
<g id="Node000002" class="node">
<title>Node2</title>
<g id="a_Node000002"><a xlink:href="class_sklep__internetowy_1_1_server_1_1_services_1_1_promotion_1_1_promotion_service.html" target="_top" xlink:title="Serwis biznesowy odpowiedzialny za zaawansowane zarządzanie akcjami promocyjnymi w systemie TechStore...">
<polygon fill="white" stroke="none" points="174.5,-278 0.75,-278 0.75,-166 174.5,-166 174.5,-278"/>
<text xml:space="preserve" text-anchor="start" x="4.75" y="-264.5" font-family="Helvetica,sans-Serif" font-size="10.00">Sklep_internetowy.Server.</text>
<text xml:space="preserve" text-anchor="start" x="4.75" y="-252.5" font-family="Helvetica,sans-Serif" font-size="10.00">Services.Promotion.PromotionService</text>
<text xml:space="preserve" text-anchor="start" x="86.12" y="-236.5" font-family="Helvetica,sans-Serif" font-size="10.00"> </text>
<text xml:space="preserve" text-anchor="start" x="6.75" y="-220.5" font-family="Helvetica,sans-Serif" font-size="10.00">+</text>
<text xml:space="preserve" text-anchor="start" x="18.75" y="-220.5" font-family="Helvetica,sans-Serif" font-size="10.00">PromotionService()</text>
<text xml:space="preserve" text-anchor="start" x="6.75" y="-204.5" font-family="Helvetica,sans-Serif" font-size="10.00">+</text>
<text xml:space="preserve" text-anchor="start" x="18.75" y="-204.5" font-family="Helvetica,sans-Serif" font-size="10.00">GetPromotionCandidatesAsync()</text>
<text xml:space="preserve" text-anchor="start" x="6.75" y="-188.5" font-family="Helvetica,sans-Serif" font-size="10.00">+</text>
<text xml:space="preserve" text-anchor="start" x="18.75" y="-188.5" font-family="Helvetica,sans-Serif" font-size="10.00">ApplyBulkDiscountsAsync()</text>
<text xml:space="preserve" text-anchor="start" x="6.75" y="-172.5" font-family="Helvetica,sans-Serif" font-size="10.00">+</text>
<text xml:space="preserve" text-anchor="start" x="18.75" y="-172.5" font-family="Helvetica,sans-Serif" font-size="10.00">RemoveExpiredDiscountsAsync()</text>
<polygon fill="#666666" stroke="#666666" points="0.75,-248 0.75,-248 174.5,-248 174.5,-248 0.75,-248"/>
<polygon fill="#666666" stroke="#666666" points="0.75,-232 0.75,-232 174.5,-232 174.5,-232 0.75,-232"/>
<polygon fill="none" stroke="#666666" points="0.75,-166 0.75,-278 174.5,-278 174.5,-166 0.75,-166"/>
</a>
</g>
</g>
<!-- Node2&#45;&gt;Node1 -->
<g id="edge1_Node000001_Node000002" class="edge">
<title>Node2&#45;&gt;Node1</title>
<g id="a_edge1_Node000001_Node000002"><a xlink:title=" ">
<path fill="none" stroke="#63b8ff" d="M87.62,-166.39C87.62,-153.12 87.62,-138.76 87.62,-124.95"/>
<polygon fill="none" stroke="#63b8ff" points="87.63,-124.83 83.63,-118.83 87.63,-112.83 91.63,-118.83 87.63,-124.83"/>
</a>
</g>
<text xml:space="preserve" text-anchor="start" x="90.62" y="-135.5" font-family="Helvetica,sans-Serif" font-size="10.00" fill="grey">&#45;_promotionService</text>
</g>
<!-- Node3 -->
<g id="Node000003" class="node">
<title>Node3</title>
<g id="a_Node000003"><a xlink:href="class_sklep__internetowy_1_1_server_1_1_data_1_1_store_db_context.html" target="_top" xlink:title="Glowny kontekst bazy danych aplikacji TechStore. Klasa dziedziczy po IdentityDbContext,...">
<polygon fill="white" stroke="none" points="148.62,-524 26.63,-524 26.63,-332 148.62,-332 148.62,-524"/>
<text xml:space="preserve" text-anchor="start" x="30.62" y="-510.5" font-family="Helvetica,sans-Serif" font-size="10.00">Sklep_internetowy.Server.</text>
<text xml:space="preserve" text-anchor="start" x="40.38" y="-498.5" font-family="Helvetica,sans-Serif" font-size="10.00">Data.StoreDbContext</text>
<text xml:space="preserve" text-anchor="start" x="36.19" y="-482.5" font-family="Helvetica,sans-Serif" font-size="10.00">+</text>
<text xml:space="preserve" text-anchor="start" x="51.75" y="-482.5" font-family="Helvetica,sans-Serif" font-size="10.00">Auctions</text>
<text xml:space="preserve" text-anchor="start" x="36.19" y="-466.5" font-family="Helvetica,sans-Serif" font-size="10.00">+</text>
<text xml:space="preserve" text-anchor="start" x="51.75" y="-466.5" font-family="Helvetica,sans-Serif" font-size="10.00">Bids</text>
<text xml:space="preserve" text-anchor="start" x="36.19" y="-450.5" font-family="Helvetica,sans-Serif" font-size="10.00">+</text>
<text xml:space="preserve" text-anchor="start" x="51.75" y="-450.5" font-family="Helvetica,sans-Serif" font-size="10.00">Products</text>
<text xml:space="preserve" text-anchor="start" x="36.19" y="-434.5" font-family="Helvetica,sans-Serif" font-size="10.00">+</text>
<text xml:space="preserve" text-anchor="start" x="51.75" y="-434.5" font-family="Helvetica,sans-Serif" font-size="10.00">Orders</text>
<text xml:space="preserve" text-anchor="start" x="36.19" y="-418.5" font-family="Helvetica,sans-Serif" font-size="10.00">+</text>
<text xml:space="preserve" text-anchor="start" x="51.75" y="-418.5" font-family="Helvetica,sans-Serif" font-size="10.00">OrderProducts</text>
<text xml:space="preserve" text-anchor="start" x="36.19" y="-402.5" font-family="Helvetica,sans-Serif" font-size="10.00">+</text>
<text xml:space="preserve" text-anchor="start" x="51.75" y="-402.5" font-family="Helvetica,sans-Serif" font-size="10.00">Messages</text>
<text xml:space="preserve" text-anchor="start" x="36.19" y="-386.5" font-family="Helvetica,sans-Serif" font-size="10.00">+</text>
<text xml:space="preserve" text-anchor="start" x="51.75" y="-386.5" font-family="Helvetica,sans-Serif" font-size="10.00">ProductCategories</text>
<text xml:space="preserve" text-anchor="start" x="36.19" y="-370.5" font-family="Helvetica,sans-Serif" font-size="10.00">+</text>
<text xml:space="preserve" text-anchor="start" x="51.75" y="-370.5" font-family="Helvetica,sans-Serif" font-size="10.00">ProductImages</text>
<text xml:space="preserve" text-anchor="start" x="36.19" y="-354.5" font-family="Helvetica,sans-Serif" font-size="10.00">+</text>
<text xml:space="preserve" text-anchor="start" x="51.75" y="-354.5" font-family="Helvetica,sans-Serif" font-size="10.00">StoreDbContext()</text>
<text xml:space="preserve" text-anchor="start" x="36.56" y="-338.5" font-family="Helvetica,sans-Serif" font-size="10.00">#</text>
<text xml:space="preserve" text-anchor="start" x="51.75" y="-338.5" font-family="Helvetica,sans-Serif" font-size="10.00">OnModelCreating()</text>
<polygon fill="#666666" stroke="#666666" points="26.62,-494 26.62,-494 148.62,-494 148.62,-494 26.62,-494"/>
<polygon fill="#666666" stroke="#666666" points="26.62,-366 26.62,-366 49.75,-366 49.75,-366 26.62,-366"/>
<polygon fill="#666666" stroke="#666666" points="49.75,-366 49.75,-366 148.62,-366 148.62,-366 49.75,-366"/>
<polygon fill="none" stroke="#666666" points="26.62,-332 26.62,-524 148.62,-524 148.62,-332 26.62,-332"/>
</a>
</g>
</g>
<!-- Node3&#45;&gt;Node2 -->
<g id="edge2_Node000002_Node000003" class="edge">
<title>Node3&#45;&gt;Node2</title>
<g id="a_edge2_Node000002_Node000003"><a xlink:title=" ">
<path fill="none" stroke="#63b8ff" d="M87.62,-332.17C87.62,-318.2 87.62,-304.05 87.62,-290.78"/>
<polygon fill="none" stroke="#63b8ff" points="87.63,-290.73 83.63,-284.73 87.63,-278.73 91.63,-284.73 87.63,-290.73"/>
</a>
</g>
<text xml:space="preserve" text-anchor="start" x="90.62" y="-301.5" font-family="Helvetica,sans-Serif" font-size="10.00" fill="grey">&#45;_context</text>
</g>
</g>
</svg>
