<?xml version="1.0" encoding="UTF-8" standalone="no"?>
<!DOCTYPE svg PUBLIC "-//W3C//DTD SVG 1.1//EN"
 "http://www.w3.org/Graphics/SVG/1.1/DTD/svg11.dtd">
<!-- Generated by graphviz version 14.1.1 (20251213.1925)
 -->
<!-- Title: Sklep_internetowy.Server.DTOs.CreateOrderRequestDto Pages: 1 -->
<svg width="151pt" height="88pt"
 viewBox="0.00 0.00 151.00 88.00" xmlns="http://www.w3.org/2000/svg" xmlns:xlink="http://www.w3.org/1999/xlink">
<g id="graph0" class="graph" transform="scale(1 1) rotate(0) translate(4 84)">
<title>Sklep_internetowy.Server.DTOs.CreateOrderRequestDto</title>
<!-- Node1 -->
<g id="Node000001" class="node">
<title>Node1</title>
<g id="a_Node000001"><a xlink:title="Obiekt transferu danych (DTO) reprezentujący kompletne żądanie utworzenia nowego zamówienia....">
<polygon fill="#999999" stroke="none" points="143,-80 0,-80 0,0 143,0 143,-80"/>
<text xml:space="preserve" text-anchor="start" x="4" y="-66.5" font-family="Helvetica,sans-Serif" font-size="10.00">Sklep_internetowy.Server.</text>
<text xml:space="preserve" text-anchor="start" x="4" y="-54.5" font-family="Helvetica,sans-Serif" font-size="10.00">DTOs.CreateOrderRequestDto</text>
<text xml:space="preserve" text-anchor="start" x="25.5" y="-38.5" font-family="Helvetica,sans-Serif" font-size="10.00">+</text>
<text xml:space="preserve" text-anchor="start" x="57" y="-38.5" font-family="Helvetica,sans-Serif" font-size="10.00">UserId</text>
<text xml:space="preserve" text-anchor="start" x="25.5" y="-22.5" font-family="Helvetica,sans-Serif" font-size="10.00">+</text>
<text xml:space="preserve" text-anchor="start" x="57" y="-22.5" font-family="Helvetica,sans-Serif" font-size="10.00">Products</text>
<text xml:space="preserve" text-anchor="start" x="70" y="-6.5" font-family="Helvetica,sans-Serif" font-size="10.00"> </text>
<polygon fill="#666666" stroke="#666666" points="0,-50 0,-50 143,-50 143,-50 0,-50"/>
<polygon fill="#666666" stroke="#666666" points="0,-18 0,-18 55,-18 55,-18 0,-18"/>
<polygon fill="#666666" stroke="#666666" points="55,-18 55,-18 143,-18 143,-18 55,-18"/>
<polygon fill="none" stroke="#666666" points="0,0 0,-80 143,-80 143,0 0,0"/>
</a>
</g>
</g>
</g>
</svg>
