<?xml version="1.0" encoding="UTF-8" standalone="no"?>
<!DOCTYPE svg PUBLIC "-//W3C//DTD SVG 1.1//EN"
 "http://www.w3.org/Graphics/SVG/1.1/DTD/svg11.dtd">
<!-- Generated by graphviz version 14.1.1 (20251213.1925)
 -->
<!-- Title: Sklep_internetowy.Server.Services.Bidding.AuctionService Pages: 1 -->
<svg width="159pt" height="398pt"
 viewBox="0.00 0.00 159.00 398.00" xmlns="http://www.w3.org/2000/svg" xmlns:xlink="http://www.w3.org/1999/xlink">
<g id="graph0" class="graph" transform="scale(1 1) rotate(0) translate(4 394)">
<title>Sklep_internetowy.Server.Services.Bidding.AuctionService</title>
<!-- Node1 -->
<g id="Node000001" class="node">
<title>Node1</title>
<g id="a_Node000001"><a xlink:title="Serwis odpowiedzialny za pełną obsługę logiki aukcji.">
<polygon fill="#999999" stroke="none" points="150.5,-144 0,-144 0,0 150.5,0 150.5,-144"/>
<text xml:space="preserve" text-anchor="start" x="4" y="-130.5" font-family="Helvetica,sans-Serif" font-size="10.00">Sklep_internetowy.Server.</text>
<text xml:space="preserve" text-anchor="start" x="4" y="-118.5" font-family="Helvetica,sans-Serif" font-size="10.00">Services.Bidding.AuctionService</text>
<text xml:space="preserve" text-anchor="start" x="73.75" y="-102.5" font-family="Helvetica,sans-Serif" font-size="10.00"> </text>
<text xml:space="preserve" text-anchor="start" x="8.25" y="-86.5" font-family="Helvetica,sans-Serif" font-size="10.00">+</text>
<text xml:space="preserve" text-anchor="start" x="22.5" y="-86.5" font-family="Helvetica,sans-Serif" font-size="10.00">AuctionService()</text>
<text xml:space="preserve" text-anchor="start" x="8.25" y="-70.5" font-family="Helvetica,sans-Serif" font-size="10.00">+</text>
<text xml:space="preserve" text-anchor="start" x="22.5" y="-70.5" font-family="Helvetica,sans-Serif" font-size="10.00">CreateAuctionAsync()</text>
<text xml:space="preserve" text-anchor="start" x="8.25" y="-54.5" font-family="Helvetica,sans-Serif" font-size="10.00">+</text>
<text xml:space="preserve" text-anchor="start" x="22.5" y="-54.5" font-family="Helvetica,sans-Serif" font-size="10.00">GetAuctionByIdAsync()</text>
<text xml:space="preserve" text-anchor="start" x="8.25" y="-38.5" font-family="Helvetica,sans-Serif" font-size="10.00">+</text>
<text xml:space="preserve" text-anchor="start" x="22.5" y="-38.5" font-family="Helvetica,sans-Serif" font-size="10.00">PlaceBidAsync()</text>
<text xml:space="preserve" text-anchor="start" x="8.25" y="-22.5" font-family="Helvetica,sans-Serif" font-size="10.00">+</text>
<text xml:space="preserve" text-anchor="start" x="22.5" y="-22.5" font-family="Helvetica,sans-Serif" font-size="10.00">GetActiveAuctionsAsync()</text>
<text xml:space="preserve" text-anchor="start" x="8.25" y="-6.5" font-family="Helvetica,sans-Serif" font-size="10.00">+</text>
<text xml:space="preserve" text-anchor="start" x="22.5" y="-6.5" font-family="Helvetica,sans-Serif" font-size="10.00">FinishAuctionAsync()</text>
<polygon fill="#666666" stroke="#666666" points="0,-114 0,-114 150.5,-114 150.5,-114 0,-114"/>
<polygon fill="#666666" stroke="#666666" points="0,-98 0,-98 150.5,-98 150.5,-98 0,-98"/>
<polygon fill="none" stroke="#666666" points="0,0 0,-144 150.5,-144 150.5,0 0,0"/>
</a>
</g>
</g>
<!-- Node2 -->
<g id="Node000002" class="node">
<title>Node2</title>
<g id="a_Node000002"><a xlink:href="class_sklep__internetowy_1_1_server_1_1_data_1_1_store_db_context.html" target="_top" xlink:title="Glowny kontekst bazy danych aplikacji TechStore. Klasa dziedziczy po IdentityDbContext,...">
<polygon fill="white" stroke="none" points="136.25,-390 14.25,-390 14.25,-198 136.25,-198 136.25,-390"/>
<text xml:space="preserve" text-anchor="start" x="18.25" y="-376.5" font-family="Helvetica,sans-Serif" font-size="10.00">Sklep_internetowy.Server.</text>
<text xml:space="preserve" text-anchor="start" x="28" y="-364.5" font-family="Helvetica,sans-Serif" font-size="10.00">Data.StoreDbContext</text>
<text xml:space="preserve" text-anchor="start" x="23.81" y="-348.5" font-family="Helvetica,sans-Serif" font-size="10.00">+</text>
<text xml:space="preserve" text-anchor="start" x="39.38" y="-348.5" font-family="Helvetica,sans-Serif" font-size="10.00">Auctions</text>
<text xml:space="preserve" text-anchor="start" x="23.81" y="-332.5" font-family="Helvetica,sans-Serif" font-size="10.00">+</text>
<text xml:space="preserve" text-anchor="start" x="39.38" y="-332.5" font-family="Helvetica,sans-Serif" font-size="10.00">Bids</text>
<text xml:space="preserve" text-anchor="start" x="23.81" y="-316.5" font-family="Helvetica,sans-Serif" font-size="10.00">+</text>
<text xml:space="preserve" text-anchor="start" x="39.38" y="-316.5" font-family="Helvetica,sans-Serif" font-size="10.00">Products</text>
<text xml:space="preserve" text-anchor="start" x="23.81" y="-300.5" font-family="Helvetica,sans-Serif" font-size="10.00">+</text>
<text xml:space="preserve" text-anchor="start" x="39.38" y="-300.5" font-family="Helvetica,sans-Serif" font-size="10.00">Orders</text>
<text xml:space="preserve" text-anchor="start" x="23.81" y="-284.5" font-family="Helvetica,sans-Serif" font-size="10.00">+</text>
<text xml:space="preserve" text-anchor="start" x="39.38" y="-284.5" font-family="Helvetica,sans-Serif" font-size="10.00">OrderProducts</text>
<text xml:space="preserve" text-anchor="start" x="23.81" y="-268.5" font-family="Helvetica,sans-Serif" font-size="10.00">+</text>
<text xml:space="preserve" text-anchor="start" x="39.38" y="-268.5" font-family="Helvetica,sans-Serif" font-size="10.00">Messages</text>
<text xml:space="preserve" text-anchor="start" x="23.81" y="-252.5" font-family="Helvetica,sans-Serif" font-size="10.00">+</text>
<text xml:space="preserve" text-anchor="start" x="39.38" y="-252.5" font-family="Helvetica,sans-Serif" font-size="10.00">ProductCategories</text>
<text xml:space="preserve" text-anchor="start" x="23.81" y="-236.5" font-family="Helvetica,sans-Serif" font-size="10.00">+</text>
<text xml:space="preserve" text-anchor="start" x="39.38" y="-236.5" font-family="Helvetica,sans-Serif" font-size="10.00">ProductImages</text>
<text xml:space="preserve" text-anchor="start" x="23.81" y="-220.5" font-family="Helvetica,sans-Serif" font-size="10.00">+</text>
<text xml:space="preserve" text-anchor="start" x="39.38" y="-220.5" font-family="Helvetica,sans-Serif" font-size="10.00">StoreDbContext()</text>
<text xml:space="preserve" text-anchor="start" x="24.19" y="-204.5" font-family="Helvetica,sans-Serif" font-size="10.00">#</text>
<text xml:space="preserve" text-anchor="start" x="39.38" y="-204.5" font-family="Helvetica,sans-Serif" font-size="10.00">OnModelCreating()</text>
<polygon fill="#666666" stroke="#666666" points="14.25,-360 14.25,-360 136.25,-360 136.25,-360 14.25,-360"/>
<polygon fill="#666666" stroke="#666666" points="14.25,-232 14.25,-232 37.38,-232 37.38,-232 14.25,-232"/>
<polygon fill="#666666" stroke="#666666" points="37.38,-232 37.38,-232 136.25,-232 136.25,-232 37.38,-232"/>
<polygon fill="none" stroke="#666666" points="14.25,-198 14.25,-390 136.25,-390 136.25,-198 14.25,-198"/>
</a>
</g>
</g>
<!-- Node2&#45;&gt;Node1 -->
<g id="edge1_Node000001_Node000002" class="edge">
<title>Node2&#45;&gt;Node1</title>
<g id="a_edge1_Node000001_Node000002"><a xlink:title=" ">
<path fill="none" stroke="#63b8ff" d="M75.25,-198.1C75.25,-184.27 75.25,-170.11 75.25,-156.52"/>
<polygon fill="none" stroke="#63b8ff" points="75.25,-156.6 71.25,-150.6 75.25,-144.6 79.25,-150.6 75.25,-156.6"/>
</a>
</g>
<text xml:space="preserve" text-anchor="start" x="78.25" y="-167.5" font-family="Helvetica,sans-Serif" font-size="10.00" fill="grey">&#45;_context</text>
</g>
</g>
</svg>
