<?xml version="1.0" encoding="UTF-8" standalone="no"?>
<!DOCTYPE svg PUBLIC "-//W3C//DTD SVG 1.1//EN"
 "http://www.w3.org/Graphics/SVG/1.1/DTD/svg11.dtd">
<!-- Generated by graphviz version 14.1.1 (20251213.1925)
 -->
<!-- Title: Sklep_internetowy.Server.Migrations.InitialCreate Pages: 1 -->
<svg width="130pt" height="104pt"
 viewBox="0.00 0.00 130.00 104.00" xmlns="http://www.w3.org/2000/svg" xmlns:xlink="http://www.w3.org/1999/xlink">
<g id="graph0" class="graph" transform="scale(1 1) rotate(0) translate(4 100)">
<title>Sklep_internetowy.Server.Migrations.InitialCreate</title>
<!-- Node1 -->
<g id="Node000001" class="node">
<title>Node1</title>
<g id="a_Node000001"><a xlink:title=" ">
<polygon fill="#999999" stroke="none" points="122,-96 0,-96 0,0 122,0 122,-96"/>
<text xml:space="preserve" text-anchor="start" x="4" y="-82.5" font-family="Helvetica,sans-Serif" font-size="10.00">Sklep_internetowy.Server.</text>
<text xml:space="preserve" text-anchor="start" x="10.75" y="-70.5" font-family="Helvetica,sans-Serif" font-size="10.00">Migrations.InitialCreate</text>
<text xml:space="preserve" text-anchor="start" x="59.5" y="-54.5" font-family="Helvetica,sans-Serif" font-size="10.00"> </text>
<text xml:space="preserve" text-anchor="start" x="9.94" y="-38.5" font-family="Helvetica,sans-Serif" font-size="10.00">#</text>
<text xml:space="preserve" text-anchor="start" x="25.12" y="-38.5" font-family="Helvetica,sans-Serif" font-size="10.00">Up()</text>
<text xml:space="preserve" text-anchor="start" x="9.94" y="-22.5" font-family="Helvetica,sans-Serif" font-size="10.00">#</text>
<text xml:space="preserve" text-anchor="start" x="25.12" y="-22.5" font-family="Helvetica,sans-Serif" font-size="10.00">Down()</text>
<text xml:space="preserve" text-anchor="start" x="9.94" y="-6.5" font-family="Helvetica,sans-Serif" font-size="10.00">#</text>
<text xml:space="preserve" text-anchor="start" x="25.12" y="-6.5" font-family="Helvetica,sans-Serif" font-size="10.00">BuildTargetModel()</text>
<polygon fill="#666666" stroke="#666666" points="0,-66 0,-66 122,-66 122,-66 0,-66"/>
<polygon fill="#666666" stroke="#666666" points="0,-50 0,-50 122,-50 122,-50 0,-50"/>
<polygon fill="none" stroke="#666666" points="0,0 0,-96 122,-96 122,0 0,0"/>
</a>
</g>
</g>
</g>
</svg>
