<?xml version="1.0" encoding="UTF-8" standalone="no"?>
<!DOCTYPE svg PUBLIC "-//W3C//DTD SVG 1.1//EN"
 "http://www.w3.org/Graphics/SVG/1.1/DTD/svg11.dtd">
<!-- Generated by graphviz version 14.1.1 (20251213.1925)
 -->
<!-- Title: Sklep_internetowy.Server.DTOs.OrderProductDetailsDto Pages: 1 -->
<svg width="150pt" height="136pt"
 viewBox="0.00 0.00 150.00 136.00" xmlns="http://www.w3.org/2000/svg" xmlns:xlink="http://www.w3.org/1999/xlink">
<g id="graph0" class="graph" transform="scale(1 1) rotate(0) translate(4 132)">
<title>Sklep_internetowy.Server.DTOs.OrderProductDetailsDto</title>
<!-- Node1 -->
<g id="Node000001" class="node">
<title>Node1</title>
<g id="a_Node000001"><a xlink:title="Obiekt transferu danych (DTO) zawierający szczegółowe informacje o konkretnym produkcie przypisanym d...">
<polygon fill="#999999" stroke="none" points="141.5,-128 0,-128 0,0 141.5,0 141.5,-128"/>
<text xml:space="preserve" text-anchor="start" x="4" y="-114.5" font-family="Helvetica,sans-Serif" font-size="10.00">Sklep_internetowy.Server.</text>
<text xml:space="preserve" text-anchor="start" x="4" y="-102.5" font-family="Helvetica,sans-Serif" font-size="10.00">DTOs.OrderProductDetailsDto</text>
<text xml:space="preserve" text-anchor="start" x="17.25" y="-86.5" font-family="Helvetica,sans-Serif" font-size="10.00">+</text>
<text xml:space="preserve" text-anchor="start" x="40.5" y="-86.5" font-family="Helvetica,sans-Serif" font-size="10.00">ProductId</text>
<text xml:space="preserve" text-anchor="start" x="17.25" y="-70.5" font-family="Helvetica,sans-Serif" font-size="10.00">+</text>
<text xml:space="preserve" text-anchor="start" x="40.5" y="-70.5" font-family="Helvetica,sans-Serif" font-size="10.00">Name</text>
<text xml:space="preserve" text-anchor="start" x="17.25" y="-54.5" font-family="Helvetica,sans-Serif" font-size="10.00">+</text>
<text xml:space="preserve" text-anchor="start" x="40.5" y="-54.5" font-family="Helvetica,sans-Serif" font-size="10.00">QuantityInOrder</text>
<text xml:space="preserve" text-anchor="start" x="17.25" y="-38.5" font-family="Helvetica,sans-Serif" font-size="10.00">+</text>
<text xml:space="preserve" text-anchor="start" x="40.5" y="-38.5" font-family="Helvetica,sans-Serif" font-size="10.00">QuantityInStock</text>
<text xml:space="preserve" text-anchor="start" x="17.25" y="-22.5" font-family="Helvetica,sans-Serif" font-size="10.00">+</text>
<text xml:space="preserve" text-anchor="start" x="40.5" y="-22.5" font-family="Helvetica,sans-Serif" font-size="10.00">Price</text>
<text xml:space="preserve" text-anchor="start" x="69.25" y="-6.5" font-family="Helvetica,sans-Serif" font-size="10.00"> </text>
<polygon fill="#666666" stroke="#666666" points="0,-98 0,-98 141.5,-98 141.5,-98 0,-98"/>
<polygon fill="#666666" stroke="#666666" points="0,-18 0,-18 38.5,-18 38.5,-18 0,-18"/>
<polygon fill="#666666" stroke="#666666" points="38.5,-18 38.5,-18 141.5,-18 141.5,-18 38.5,-18"/>
<polygon fill="none" stroke="#666666" points="0,0 0,-128 141.5,-128 141.5,0 0,0"/>
</a>
</g>
</g>
</g>
</svg>
